<svg version="1.1" xmlns="http://www.w3.org/2000/svg" xmlns:xlink="http://www.w3.org/1999/xlink" width="1164" height="748"><defs><clipPath id="RKvOTThDprUX"><path fill="none" stroke="none" d=" M 0 0 L 1164 0 L 1164 748 L 0 748 L 0 0 Z"/></clipPath></defs><g transform="scale(1,1)" clip-path="url(#RKvOTThDprUX)"><g><rect fill="rgb(255,255,255)" stroke="none" x="0" y="0" width="1164" height="748" fill-opacity="1"/><path fill="none" stroke="rgb(192,192,192)" paint-order="fill stroke markers" d=" M 54.5 0.5 L 54.5 748.5 M 54.5 0.5 L 54.5 748.5 M 233.5 0.5 L 233.5 748.5 M 323.5 0.5 L 323.5 748.5 M 412.5 0.5 L 412.5 748.5 M 502.5 0.5 L 502.5 748.5 M 592.5 0.5 L 592.5 748.5 M 681.5 0.5 L 681.5 748.5 M 771.5 0.5 L 771.5 748.5 M 861.5 0.5 L 861.5 748.5 M 950.5 0.5 L 950.5 748.5 M 1040.5 0.5 L 1040.5 748.5 M 1129.5 0.5 L 1129.5 748.5" stroke-opacity="1" stroke-linecap="round" stroke-linejoin="round" stroke-miterlimit="10"/><path fill="none" stroke="rgb(192,192,192)" paint-order="fill stroke markers" d=" M 0.5 0.5 L 0.5 748.5 M 18.5 0.5 L 18.5 748.5 M 36.5 0.5 L 36.5 748.5 M 72.5 0.5 L 72.5 748.5 M 90.5 0.5 L 90.5 748.5 M 108.5 0.5 L 108.5 748.5 M 126.5 0.5 L 126.5 748.5 M 161.5 0.5 L 161.5 748.5 M 179.5 0.5 L 179.5 748.5 M 197.5 0.5 L 197.5 748.5 M 215.5 0.5 L 215.5 748.5 M 251.5 0.5 L 251.5 748.5 M 269.5 0.5 L 269.5 748.5 M 287.5 0.5 L 287.5 748.5 M 305.5 0.5 L 305.5 748.5 M 341.5 0.5 L 341.5 748.5 M 359.5 0.5 L 359.5 748.5 M 377.5 0.5 L 377.5 748.5 M 395.5 0.5 L 395.5 748.5 M 430.5 0.5 L 430.5 748.5 M 448.5 0.5 L 448.5 748.5 M 466.5 0.5 L 466.5 748.5 M 484.5 0.5 L 484.5 748.5 M 520.5 0.5 L 520.5 748.5 M 538.5 0.5 L 538.5 748.5 M 556.5 0.5 L 556.5 748.5 M 574.5 0.5 L 574.5 748.5 M 610.5 0.5 L 610.5 748.5 M 628.5 0.5 L 628.5 748.5 M 645.5 0.5 L 645.5 748.5 M 663.5 0.5 L 663.5 748.5 M 699.5 0.5 L 699.5 748.5 M 717.5 0.5 L 717.5 748.5 M 735.5 0.5 L 735.5 748.5 M 753.5 0.5 L 753.5 748.5 M 789.5 0.5 L 789.5 748.5 M 807.5 0.5 L 807.5 748.5 M 825.5 0.5 L 825.5 748.5 M 843.5 0.5 L 843.5 748.5 M 879.5 0.5 L 879.5 748.5 M 896.5 0.5 L 896.5 748.5 M 914.5 0.5 L 914.5 748.5 M 932.5 0.5 L 932.5 748.5 M 968.5 0.5 L 968.5 748.5 M 986.5 0.5 L 986.5 748.5 M 1004.5 0.5 L 1004.5 748.5 M 1022.5 0.5 L 1022.5 748.5 M 1058.5 0.5 L 1058.5 748.5 M 1076.5 0.5 L 1076.5 748.5 M 1094.5 0.5 L 1094.5 748.5 M 1112.5 0.5 L 1112.5 748.5 M 1147.5 0.5 L 1147.5 748.5" stroke-opacity="0.23529411764705882" stroke-linecap="round" stroke-linejoin="round" stroke-miterlimit="10"/><path fill="none" stroke="rgb(192,192,192)" paint-order="fill stroke markers" d=" M 0.5 74.5 L 1164.5 74.5 M 0.5 74.5 L 1164.5 74.5 M 0.5 164.5 L 1164.5 164.5 M 0.5 253.5 L 1164.5 253.5 M 0.5 343.5 L 1164.5 343.5 M 0.5 433.5 L 1164.5 433.5 M 0.5 612.5 L 1164.5 612.5 M 0.5 702.5 L 1164.5 702.5" stroke-opacity="1" stroke-linecap="round" stroke-linejoin="round" stroke-miterlimit="10"/><path fill="none" stroke="rgb(192,192,192)" paint-order="fill stroke markers" d=" M 0.5 2.5 L 1164.5 2.5 M 0.5 20.5 L 1164.5 20.5 M 0.5 38.5 L 1164.5 38.5 M 0.5 56.5 L 1164.5 56.5 M 0.5 92.5 L 1164.5 92.5 M 0.5 110.5 L 1164.5 110.5 M 0.5 128.5 L 1164.5 128.5 M 0.5 146.5 L 1164.5 146.5 M 0.5 182.5 L 1164.5 182.5 M 0.5 200.5 L 1164.5 200.5 M 0.5 218.5 L 1164.5 218.5 M 0.5 235.5 L 1164.5 235.5 M 0.5 271.5 L 1164.5 271.5 M 0.5 289.5 L 1164.5 289.5 M 0.5 307.5 L 1164.5 307.5 M 0.5 325.5 L 1164.5 325.5 M 0.5 361.5 L 1164.5 361.5 M 0.5 379.5 L 1164.5 379.5 M 0.5 397.5 L 1164.5 397.5 M 0.5 415.5 L 1164.5 415.5 M 0.5 451.5 L 1164.5 451.5 M 0.5 469.5 L 1164.5 469.5 M 0.5 486.5 L 1164.5 486.5 M 0.5 504.5 L 1164.5 504.5 M 0.5 540.5 L 1164.5 540.5 M 0.5 558.5 L 1164.5 558.5 M 0.5 576.5 L 1164.5 576.5 M 0.5 594.5 L 1164.5 594.5 M 0.5 630.5 L 1164.5 630.5 M 0.5 648.5 L 1164.5 648.5 M 0.5 666.5 L 1164.5 666.5 M 0.5 684.5 L 1164.5 684.5 M 0.5 720.5 L 1164.5 720.5 M 0.5 737.5 L 1164.5 737.5" stroke-opacity="0.23529411764705882" stroke-linecap="round" stroke-linejoin="round" stroke-miterlimit="10"/><path fill="none" stroke="rgb(0,0,0)" paint-order="fill stroke markers" d=" M 144.5 2.5 L 144.5 748.5" stroke-opacity="1" stroke-miterlimit="10"/><path fill="none" stroke="rgb(0,0,0)" paint-order="fill stroke markers" d=" M 144.5 1.5 L 140.5 5.5" stroke-opacity="1" stroke-miterlimit="10"/><path fill="none" stroke="rgb(0,0,0)" paint-order="fill stroke markers" d=" M 144.5 1.5 L 148.5 5.5" stroke-opacity="1" stroke-miterlimit="10"/><path fill="none" stroke="rgb(0,0,0)" paint-order="fill stroke markers" d=" M 0.5 522.5 L 1162.5 522.5" stroke-opacity="1" stroke-miterlimit="10"/><path fill="none" stroke="rgb(0,0,0)" paint-order="fill stroke markers" d=" M 1163.5 522.5 L 1159.5 518.5" stroke-opacity="1" stroke-miterlimit="10"/><path fill="none" stroke="rgb(0,0,0)" paint-order="fill stroke markers" d=" M 1163.5 522.5 L 1159.5 526.5" stroke-opacity="1" stroke-miterlimit="10"/><text fill="none" stroke="rgb(255,255,255)" font-family="geogebra-sans-serif, sans-serif" font-size="12px" font-style="normal" font-weight="normal" text-decoration="normal" x="49" y="538" text-anchor="start" dominant-baseline="alphabetic" stroke-opacity="1" stroke-miterlimit="10" stroke-width="4">–2</text><text fill="rgb(0,0,0)" stroke="none" font-family="geogebra-sans-serif, sans-serif" font-size="12px" font-style="normal" font-weight="normal" text-decoration="normal" x="49" y="538" text-anchor="start" dominant-baseline="alphabetic" fill-opacity="1">–2</text><text fill="none" stroke="rgb(255,255,255)" font-family="geogebra-sans-serif, sans-serif" font-size="12px" font-style="normal" font-weight="normal" text-decoration="normal" x="231" y="538" text-anchor="start" dominant-baseline="alphabetic" stroke-opacity="1" stroke-miterlimit="10" stroke-width="4">2</text><text fill="rgb(0,0,0)" stroke="none" font-family="geogebra-sans-serif, sans-serif" font-size="12px" font-style="normal" font-weight="normal" text-decoration="normal" x="231" y="538" text-anchor="start" dominant-baseline="alphabetic" fill-opacity="1">2</text><text fill="none" stroke="rgb(255,255,255)" font-family="geogebra-sans-serif, sans-serif" font-size="12px" font-style="normal" font-weight="normal" text-decoration="normal" x="321" y="538" text-anchor="start" dominant-baseline="alphabetic" stroke-opacity="1" stroke-miterlimit="10" stroke-width="4">4</text><text fill="rgb(0,0,0)" stroke="none" font-family="geogebra-sans-serif, sans-serif" font-size="12px" font-style="normal" font-weight="normal" text-decoration="normal" x="321" y="538" text-anchor="start" dominant-baseline="alphabetic" fill-opacity="1">4</text><text fill="none" stroke="rgb(255,255,255)" font-family="geogebra-sans-serif, sans-serif" font-size="12px" font-style="normal" font-weight="normal" text-decoration="normal" x="410" y="538" text-anchor="start" dominant-baseline="alphabetic" stroke-opacity="1" stroke-miterlimit="10" stroke-width="4">6</text><text fill="rgb(0,0,0)" stroke="none" font-family="geogebra-sans-serif, sans-serif" font-size="12px" font-style="normal" font-weight="normal" text-decoration="normal" x="410" y="538" text-anchor="start" dominant-baseline="alphabetic" fill-opacity="1">6</text><text fill="none" stroke="rgb(255,255,255)" font-family="geogebra-sans-serif, sans-serif" font-size="12px" font-style="normal" font-weight="normal" text-decoration="normal" x="500" y="538" text-anchor="start" dominant-baseline="alphabetic" stroke-opacity="1" stroke-miterlimit="10" stroke-width="4">8</text><text fill="rgb(0,0,0)" stroke="none" font-family="geogebra-sans-serif, sans-serif" font-size="12px" font-style="normal" font-weight="normal" text-decoration="normal" x="500" y="538" text-anchor="start" dominant-baseline="alphabetic" fill-opacity="1">8</text><text fill="none" stroke="rgb(255,255,255)" font-family="geogebra-sans-serif, sans-serif" font-size="12px" font-style="normal" font-weight="normal" text-decoration="normal" x="587" y="538" text-anchor="start" dominant-baseline="alphabetic" stroke-opacity="1" stroke-miterlimit="10" stroke-width="4">10</text><text fill="rgb(0,0,0)" stroke="none" font-family="geogebra-sans-serif, sans-serif" font-size="12px" font-style="normal" font-weight="normal" text-decoration="normal" x="587" y="538" text-anchor="start" dominant-baseline="alphabetic" fill-opacity="1">10</text><text fill="none" stroke="rgb(255,255,255)" font-family="geogebra-sans-serif, sans-serif" font-size="12px" font-style="normal" font-weight="normal" text-decoration="normal" x="676" y="538" text-anchor="start" dominant-baseline="alphabetic" stroke-opacity="1" stroke-miterlimit="10" stroke-width="4">12</text><text fill="rgb(0,0,0)" stroke="none" font-family="geogebra-sans-serif, sans-serif" font-size="12px" font-style="normal" font-weight="normal" text-decoration="normal" x="676" y="538" text-anchor="start" dominant-baseline="alphabetic" fill-opacity="1">12</text><text fill="none" stroke="rgb(255,255,255)" font-family="geogebra-sans-serif, sans-serif" font-size="12px" font-style="normal" font-weight="normal" text-decoration="normal" x="766" y="538" text-anchor="start" dominant-baseline="alphabetic" stroke-opacity="1" stroke-miterlimit="10" stroke-width="4">14</text><text fill="rgb(0,0,0)" stroke="none" font-family="geogebra-sans-serif, sans-serif" font-size="12px" font-style="normal" font-weight="normal" text-decoration="normal" x="766" y="538" text-anchor="start" dominant-baseline="alphabetic" fill-opacity="1">14</text><text fill="none" stroke="rgb(255,255,255)" font-family="geogebra-sans-serif, sans-serif" font-size="12px" font-style="normal" font-weight="normal" text-decoration="normal" x="856" y="538" text-anchor="start" dominant-baseline="alphabetic" stroke-opacity="1" stroke-miterlimit="10" stroke-width="4">16</text><text fill="rgb(0,0,0)" stroke="none" font-family="geogebra-sans-serif, sans-serif" font-size="12px" font-style="normal" font-weight="normal" text-decoration="normal" x="856" y="538" text-anchor="start" dominant-baseline="alphabetic" fill-opacity="1">16</text><text fill="none" stroke="rgb(255,255,255)" font-family="geogebra-sans-serif, sans-serif" font-size="12px" font-style="normal" font-weight="normal" text-decoration="normal" x="945" y="538" text-anchor="start" dominant-baseline="alphabetic" stroke-opacity="1" stroke-miterlimit="10" stroke-width="4">18</text><text fill="rgb(0,0,0)" stroke="none" font-family="geogebra-sans-serif, sans-serif" font-size="12px" font-style="normal" font-weight="normal" text-decoration="normal" x="945" y="538" text-anchor="start" dominant-baseline="alphabetic" fill-opacity="1">18</text><text fill="none" stroke="rgb(255,255,255)" font-family="geogebra-sans-serif, sans-serif" font-size="12px" font-style="normal" font-weight="normal" text-decoration="normal" x="1035" y="538" text-anchor="start" dominant-baseline="alphabetic" stroke-opacity="1" stroke-miterlimit="10" stroke-width="4">20</text><text fill="rgb(0,0,0)" stroke="none" font-family="geogebra-sans-serif, sans-serif" font-size="12px" font-style="normal" font-weight="normal" text-decoration="normal" x="1035" y="538" text-anchor="start" dominant-baseline="alphabetic" fill-opacity="1">20</text><text fill="none" stroke="rgb(255,255,255)" font-family="geogebra-sans-serif, sans-serif" font-size="12px" font-style="normal" font-weight="normal" text-decoration="normal" x="1124" y="538" text-anchor="start" dominant-baseline="alphabetic" stroke-opacity="1" stroke-miterlimit="10" stroke-width="4">22</text><text fill="rgb(0,0,0)" stroke="none" font-family="geogebra-sans-serif, sans-serif" font-size="12px" font-style="normal" font-weight="normal" text-decoration="normal" x="1124" y="538" text-anchor="start" dominant-baseline="alphabetic" fill-opacity="1">22</text><text fill="none" stroke="rgb(255,255,255)" font-family="geogebra-sans-serif, sans-serif" font-size="12px" font-style="normal" font-weight="normal" text-decoration="normal" x="122" y="707" text-anchor="start" dominant-baseline="alphabetic" stroke-opacity="1" stroke-miterlimit="10" stroke-width="4">–4</text><text fill="rgb(0,0,0)" stroke="none" font-family="geogebra-sans-serif, sans-serif" font-size="12px" font-style="normal" font-weight="normal" text-decoration="normal" x="122" y="707" text-anchor="start" dominant-baseline="alphabetic" fill-opacity="1">–4</text><text fill="none" stroke="rgb(255,255,255)" font-family="geogebra-sans-serif, sans-serif" font-size="12px" font-style="normal" font-weight="normal" text-decoration="normal" x="122" y="617" text-anchor="start" dominant-baseline="alphabetic" stroke-opacity="1" stroke-miterlimit="10" stroke-width="4">–2</text><text fill="rgb(0,0,0)" stroke="none" font-family="geogebra-sans-serif, sans-serif" font-size="12px" font-style="normal" font-weight="normal" text-decoration="normal" x="122" y="617" text-anchor="start" dominant-baseline="alphabetic" fill-opacity="1">–2</text><text fill="none" stroke="rgb(255,255,255)" font-family="geogebra-sans-serif, sans-serif" font-size="12px" font-style="normal" font-weight="normal" text-decoration="normal" x="131" y="438" text-anchor="start" dominant-baseline="alphabetic" stroke-opacity="1" stroke-miterlimit="10" stroke-width="4">2</text><text fill="rgb(0,0,0)" stroke="none" font-family="geogebra-sans-serif, sans-serif" font-size="12px" font-style="normal" font-weight="normal" text-decoration="normal" x="131" y="438" text-anchor="start" dominant-baseline="alphabetic" fill-opacity="1">2</text><text fill="none" stroke="rgb(255,255,255)" font-family="geogebra-sans-serif, sans-serif" font-size="12px" font-style="normal" font-weight="normal" text-decoration="normal" x="131" y="348" text-anchor="start" dominant-baseline="alphabetic" stroke-opacity="1" stroke-miterlimit="10" stroke-width="4">4</text><text fill="rgb(0,0,0)" stroke="none" font-family="geogebra-sans-serif, sans-serif" font-size="12px" font-style="normal" font-weight="normal" text-decoration="normal" x="131" y="348" text-anchor="start" dominant-baseline="alphabetic" fill-opacity="1">4</text><text fill="none" stroke="rgb(255,255,255)" font-family="geogebra-sans-serif, sans-serif" font-size="12px" font-style="normal" font-weight="normal" text-decoration="normal" x="131" y="258" text-anchor="start" dominant-baseline="alphabetic" stroke-opacity="1" stroke-miterlimit="10" stroke-width="4">6</text><text fill="rgb(0,0,0)" stroke="none" font-family="geogebra-sans-serif, sans-serif" font-size="12px" font-style="normal" font-weight="normal" text-decoration="normal" x="131" y="258" text-anchor="start" dominant-baseline="alphabetic" fill-opacity="1">6</text><text fill="none" stroke="rgb(255,255,255)" font-family="geogebra-sans-serif, sans-serif" font-size="12px" font-style="normal" font-weight="normal" text-decoration="normal" x="131" y="169" text-anchor="start" dominant-baseline="alphabetic" stroke-opacity="1" stroke-miterlimit="10" stroke-width="4">8</text><text fill="rgb(0,0,0)" stroke="none" font-family="geogebra-sans-serif, sans-serif" font-size="12px" font-style="normal" font-weight="normal" text-decoration="normal" x="131" y="169" text-anchor="start" dominant-baseline="alphabetic" fill-opacity="1">8</text><text fill="none" stroke="rgb(255,255,255)" font-family="geogebra-sans-serif, sans-serif" font-size="12px" font-style="normal" font-weight="normal" text-decoration="normal" x="124" y="79" text-anchor="start" dominant-baseline="alphabetic" stroke-opacity="1" stroke-miterlimit="10" stroke-width="4">10</text><text fill="rgb(0,0,0)" stroke="none" font-family="geogebra-sans-serif, sans-serif" font-size="12px" font-style="normal" font-weight="normal" text-decoration="normal" x="124" y="79" text-anchor="start" dominant-baseline="alphabetic" fill-opacity="1">10</text><text fill="none" stroke="rgb(255,255,255)" font-family="geogebra-sans-serif, sans-serif" font-size="12px" font-style="normal" font-weight="normal" text-decoration="normal" x="131" y="538" text-anchor="start" dominant-baseline="alphabetic" stroke-opacity="1" stroke-miterlimit="10" stroke-width="4">0</text><text fill="rgb(0,0,0)" stroke="none" font-family="geogebra-sans-serif, sans-serif" font-size="12px" font-style="normal" font-weight="normal" text-decoration="normal" x="131" y="538" text-anchor="start" dominant-baseline="alphabetic" fill-opacity="1">0</text><path fill="rgb(153,51,255)" stroke="none" paint-order="stroke fill markers" d=" M 144.0378293641572 0 L 144.0378293641572 702.0782574627113 L 412.9306907035484 702.0782574627113 L 412.9306907035484 0 Z" fill-opacity="0.24705882352941178"/></g></g></svg>