<svg version="1.1" xmlns="http://www.w3.org/2000/svg" xmlns:xlink="http://www.w3.org/1999/xlink" width="1150" height="712"><defs><clipPath id="ZBNlZzuHXoBs"><path fill="none" stroke="none" d=" M 0 0 L 1150 0 L 1150 712 L 0 712 L 0 0 Z"/></clipPath></defs><g transform="scale(1,1)" clip-path="url(#ZBNlZzuHXoBs)"><g><rect fill="rgb(255,255,255)" stroke="none" x="0" y="0" width="1150" height="712" fill-opacity="1"/><path fill="none" stroke="rgb(192,192,192)" paint-order="fill stroke markers" d=" M 54.5 0.5 L 54.5 712.5 M 54.5 0.5 L 54.5 712.5 M 233.5 0.5 L 233.5 712.5 M 323.5 0.5 L 323.5 712.5 M 412.5 0.5 L 412.5 712.5 M 502.5 0.5 L 502.5 712.5 M 592.5 0.5 L 592.5 712.5 M 681.5 0.5 L 681.5 712.5 M 771.5 0.5 L 771.5 712.5 M 861.5 0.5 L 861.5 712.5 M 950.5 0.5 L 950.5 712.5 M 1040.5 0.5 L 1040.5 712.5 M 1129.5 0.5 L 1129.5 712.5" stroke-opacity="1" stroke-linecap="round" stroke-linejoin="round" stroke-miterlimit="10"/><path fill="none" stroke="rgb(192,192,192)" paint-order="fill stroke markers" d=" M 0.5 0.5 L 0.5 712.5 M 18.5 0.5 L 18.5 712.5 M 36.5 0.5 L 36.5 712.5 M 72.5 0.5 L 72.5 712.5 M 90.5 0.5 L 90.5 712.5 M 108.5 0.5 L 108.5 712.5 M 126.5 0.5 L 126.5 712.5 M 161.5 0.5 L 161.5 712.5 M 179.5 0.5 L 179.5 712.5 M 197.5 0.5 L 197.5 712.5 M 215.5 0.5 L 215.5 712.5 M 251.5 0.5 L 251.5 712.5 M 269.5 0.5 L 269.5 712.5 M 287.5 0.5 L 287.5 712.5 M 305.5 0.5 L 305.5 712.5 M 341.5 0.5 L 341.5 712.5 M 359.5 0.5 L 359.5 712.5 M 377.5 0.5 L 377.5 712.5 M 395.5 0.5 L 395.5 712.5 M 430.5 0.5 L 430.5 712.5 M 448.5 0.5 L 448.5 712.5 M 466.5 0.5 L 466.5 712.5 M 484.5 0.5 L 484.5 712.5 M 520.5 0.5 L 520.5 712.5 M 538.5 0.5 L 538.5 712.5 M 556.5 0.5 L 556.5 712.5 M 574.5 0.5 L 574.5 712.5 M 610.5 0.5 L 610.5 712.5 M 628.5 0.5 L 628.5 712.5 M 645.5 0.5 L 645.5 712.5 M 663.5 0.5 L 663.5 712.5 M 699.5 0.5 L 699.5 712.5 M 717.5 0.5 L 717.5 712.5 M 735.5 0.5 L 735.5 712.5 M 753.5 0.5 L 753.5 712.5 M 789.5 0.5 L 789.5 712.5 M 807.5 0.5 L 807.5 712.5 M 825.5 0.5 L 825.5 712.5 M 843.5 0.5 L 843.5 712.5 M 879.5 0.5 L 879.5 712.5 M 896.5 0.5 L 896.5 712.5 M 914.5 0.5 L 914.5 712.5 M 932.5 0.5 L 932.5 712.5 M 968.5 0.5 L 968.5 712.5 M 986.5 0.5 L 986.5 712.5 M 1004.5 0.5 L 1004.5 712.5 M 1022.5 0.5 L 1022.5 712.5 M 1058.5 0.5 L 1058.5 712.5 M 1076.5 0.5 L 1076.5 712.5 M 1094.5 0.5 L 1094.5 712.5 M 1112.5 0.5 L 1112.5 712.5 M 1147.5 0.5 L 1147.5 712.5" stroke-opacity="0.23529411764705882" stroke-linecap="round" stroke-linejoin="round" stroke-miterlimit="10"/><path fill="none" stroke="rgb(192,192,192)" paint-order="fill stroke markers" d=" M 0.5 74.5 L 1150.5 74.5 M 0.5 74.5 L 1150.5 74.5 M 0.5 164.5 L 1150.5 164.5 M 0.5 253.5 L 1150.5 253.5 M 0.5 343.5 L 1150.5 343.5 M 0.5 433.5 L 1150.5 433.5 M 0.5 612.5 L 1150.5 612.5 M 0.5 702.5 L 1150.5 702.5" stroke-opacity="1" stroke-linecap="round" stroke-linejoin="round" stroke-miterlimit="10"/><path fill="none" stroke="rgb(192,192,192)" paint-order="fill stroke markers" d=" M 0.5 2.5 L 1150.5 2.5 M 0.5 20.5 L 1150.5 20.5 M 0.5 38.5 L 1150.5 38.5 M 0.5 56.5 L 1150.5 56.5 M 0.5 92.5 L 1150.5 92.5 M 0.5 110.5 L 1150.5 110.5 M 0.5 128.5 L 1150.5 128.5 M 0.5 146.5 L 1150.5 146.5 M 0.5 182.5 L 1150.5 182.5 M 0.5 200.5 L 1150.5 200.5 M 0.5 218.5 L 1150.5 218.5 M 0.5 235.5 L 1150.5 235.5 M 0.5 271.5 L 1150.5 271.5 M 0.5 289.5 L 1150.5 289.5 M 0.5 307.5 L 1150.5 307.5 M 0.5 325.5 L 1150.5 325.5 M 0.5 361.5 L 1150.5 361.5 M 0.5 379.5 L 1150.5 379.5 M 0.5 397.5 L 1150.5 397.5 M 0.5 415.5 L 1150.5 415.5 M 0.5 451.5 L 1150.5 451.5 M 0.5 469.5 L 1150.5 469.5 M 0.5 486.5 L 1150.5 486.5 M 0.5 504.5 L 1150.5 504.5 M 0.5 540.5 L 1150.5 540.5 M 0.5 558.5 L 1150.5 558.5 M 0.5 576.5 L 1150.5 576.5 M 0.5 594.5 L 1150.5 594.5 M 0.5 630.5 L 1150.5 630.5 M 0.5 648.5 L 1150.5 648.5 M 0.5 666.5 L 1150.5 666.5 M 0.5 684.5 L 1150.5 684.5" stroke-opacity="0.23529411764705882" stroke-linecap="round" stroke-linejoin="round" stroke-miterlimit="10"/><path fill="none" stroke="rgb(0,0,0)" paint-order="fill stroke markers" d=" M 144.5 2.5 L 144.5 712.5" stroke-opacity="1" stroke-miterlimit="10"/><path fill="none" stroke="rgb(0,0,0)" paint-order="fill stroke markers" d=" M 144.5 1.5 L 140.5 5.5" stroke-opacity="1" stroke-miterlimit="10"/><path fill="none" stroke="rgb(0,0,0)" paint-order="fill stroke markers" d=" M 144.5 1.5 L 148.5 5.5" stroke-opacity="1" stroke-miterlimit="10"/><path fill="none" stroke="rgb(0,0,0)" paint-order="fill stroke markers" d=" M 0.5 522.5 L 1148.5 522.5" stroke-opacity="1" stroke-miterlimit="10"/><path fill="none" stroke="rgb(0,0,0)" paint-order="fill stroke markers" d=" M 1149.5 522.5 L 1145.5 518.5" stroke-opacity="1" stroke-miterlimit="10"/><path fill="none" stroke="rgb(0,0,0)" paint-order="fill stroke markers" d=" M 1149.5 522.5 L 1145.5 526.5" stroke-opacity="1" stroke-miterlimit="10"/><text fill="none" stroke="rgb(255,255,255)" font-family="geogebra-sans-serif, sans-serif" font-size="12px" font-style="normal" font-weight="normal" text-decoration="normal" x="49" y="538" text-anchor="start" dominant-baseline="alphabetic" stroke-opacity="1" stroke-miterlimit="10" stroke-width="4">–2</text><text fill="rgb(0,0,0)" stroke="none" font-family="geogebra-sans-serif, sans-serif" font-size="12px" font-style="normal" font-weight="normal" text-decoration="normal" x="49" y="538" text-anchor="start" dominant-baseline="alphabetic" fill-opacity="1">–2</text><text fill="none" stroke="rgb(255,255,255)" font-family="geogebra-sans-serif, sans-serif" font-size="12px" font-style="normal" font-weight="normal" text-decoration="normal" x="231" y="538" text-anchor="start" dominant-baseline="alphabetic" stroke-opacity="1" stroke-miterlimit="10" stroke-width="4">2</text><text fill="rgb(0,0,0)" stroke="none" font-family="geogebra-sans-serif, sans-serif" font-size="12px" font-style="normal" font-weight="normal" text-decoration="normal" x="231" y="538" text-anchor="start" dominant-baseline="alphabetic" fill-opacity="1">2</text><text fill="none" stroke="rgb(255,255,255)" font-family="geogebra-sans-serif, sans-serif" font-size="12px" font-style="normal" font-weight="normal" text-decoration="normal" x="321" y="538" text-anchor="start" dominant-baseline="alphabetic" stroke-opacity="1" stroke-miterlimit="10" stroke-width="4">4</text><text fill="rgb(0,0,0)" stroke="none" font-family="geogebra-sans-serif, sans-serif" font-size="12px" font-style="normal" font-weight="normal" text-decoration="normal" x="321" y="538" text-anchor="start" dominant-baseline="alphabetic" fill-opacity="1">4</text><text fill="none" stroke="rgb(255,255,255)" font-family="geogebra-sans-serif, sans-serif" font-size="12px" font-style="normal" font-weight="normal" text-decoration="normal" x="410" y="538" text-anchor="start" dominant-baseline="alphabetic" stroke-opacity="1" stroke-miterlimit="10" stroke-width="4">6</text><text fill="rgb(0,0,0)" stroke="none" font-family="geogebra-sans-serif, sans-serif" font-size="12px" font-style="normal" font-weight="normal" text-decoration="normal" x="410" y="538" text-anchor="start" dominant-baseline="alphabetic" fill-opacity="1">6</text><text fill="none" stroke="rgb(255,255,255)" font-family="geogebra-sans-serif, sans-serif" font-size="12px" font-style="normal" font-weight="normal" text-decoration="normal" x="500" y="538" text-anchor="start" dominant-baseline="alphabetic" stroke-opacity="1" stroke-miterlimit="10" stroke-width="4">8</text><text fill="rgb(0,0,0)" stroke="none" font-family="geogebra-sans-serif, sans-serif" font-size="12px" font-style="normal" font-weight="normal" text-decoration="normal" x="500" y="538" text-anchor="start" dominant-baseline="alphabetic" fill-opacity="1">8</text><text fill="none" stroke="rgb(255,255,255)" font-family="geogebra-sans-serif, sans-serif" font-size="12px" font-style="normal" font-weight="normal" text-decoration="normal" x="587" y="538" text-anchor="start" dominant-baseline="alphabetic" stroke-opacity="1" stroke-miterlimit="10" stroke-width="4">10</text><text fill="rgb(0,0,0)" stroke="none" font-family="geogebra-sans-serif, sans-serif" font-size="12px" font-style="normal" font-weight="normal" text-decoration="normal" x="587" y="538" text-anchor="start" dominant-baseline="alphabetic" fill-opacity="1">10</text><text fill="none" stroke="rgb(255,255,255)" font-family="geogebra-sans-serif, sans-serif" font-size="12px" font-style="normal" font-weight="normal" text-decoration="normal" x="676" y="538" text-anchor="start" dominant-baseline="alphabetic" stroke-opacity="1" stroke-miterlimit="10" stroke-width="4">12</text><text fill="rgb(0,0,0)" stroke="none" font-family="geogebra-sans-serif, sans-serif" font-size="12px" font-style="normal" font-weight="normal" text-decoration="normal" x="676" y="538" text-anchor="start" dominant-baseline="alphabetic" fill-opacity="1">12</text><text fill="none" stroke="rgb(255,255,255)" font-family="geogebra-sans-serif, sans-serif" font-size="12px" font-style="normal" font-weight="normal" text-decoration="normal" x="766" y="538" text-anchor="start" dominant-baseline="alphabetic" stroke-opacity="1" stroke-miterlimit="10" stroke-width="4">14</text><text fill="rgb(0,0,0)" stroke="none" font-family="geogebra-sans-serif, sans-serif" font-size="12px" font-style="normal" font-weight="normal" text-decoration="normal" x="766" y="538" text-anchor="start" dominant-baseline="alphabetic" fill-opacity="1">14</text><text fill="none" stroke="rgb(255,255,255)" font-family="geogebra-sans-serif, sans-serif" font-size="12px" font-style="normal" font-weight="normal" text-decoration="normal" x="856" y="538" text-anchor="start" dominant-baseline="alphabetic" stroke-opacity="1" stroke-miterlimit="10" stroke-width="4">16</text><text fill="rgb(0,0,0)" stroke="none" font-family="geogebra-sans-serif, sans-serif" font-size="12px" font-style="normal" font-weight="normal" text-decoration="normal" x="856" y="538" text-anchor="start" dominant-baseline="alphabetic" fill-opacity="1">16</text><text fill="none" stroke="rgb(255,255,255)" font-family="geogebra-sans-serif, sans-serif" font-size="12px" font-style="normal" font-weight="normal" text-decoration="normal" x="945" y="538" text-anchor="start" dominant-baseline="alphabetic" stroke-opacity="1" stroke-miterlimit="10" stroke-width="4">18</text><text fill="rgb(0,0,0)" stroke="none" font-family="geogebra-sans-serif, sans-serif" font-size="12px" font-style="normal" font-weight="normal" text-decoration="normal" x="945" y="538" text-anchor="start" dominant-baseline="alphabetic" fill-opacity="1">18</text><text fill="none" stroke="rgb(255,255,255)" font-family="geogebra-sans-serif, sans-serif" font-size="12px" font-style="normal" font-weight="normal" text-decoration="normal" x="1035" y="538" text-anchor="start" dominant-baseline="alphabetic" stroke-opacity="1" stroke-miterlimit="10" stroke-width="4">20</text><text fill="rgb(0,0,0)" stroke="none" font-family="geogebra-sans-serif, sans-serif" font-size="12px" font-style="normal" font-weight="normal" text-decoration="normal" x="1035" y="538" text-anchor="start" dominant-baseline="alphabetic" fill-opacity="1">20</text><text fill="none" stroke="rgb(255,255,255)" font-family="geogebra-sans-serif, sans-serif" font-size="12px" font-style="normal" font-weight="normal" text-decoration="normal" x="1124" y="538" text-anchor="start" dominant-baseline="alphabetic" stroke-opacity="1" stroke-miterlimit="10" stroke-width="4">22</text><text fill="rgb(0,0,0)" stroke="none" font-family="geogebra-sans-serif, sans-serif" font-size="12px" font-style="normal" font-weight="normal" text-decoration="normal" x="1124" y="538" text-anchor="start" dominant-baseline="alphabetic" fill-opacity="1">22</text><text fill="none" stroke="rgb(255,255,255)" font-family="geogebra-sans-serif, sans-serif" font-size="12px" font-style="normal" font-weight="normal" text-decoration="normal" x="122" y="617" text-anchor="start" dominant-baseline="alphabetic" stroke-opacity="1" stroke-miterlimit="10" stroke-width="4">–2</text><text fill="rgb(0,0,0)" stroke="none" font-family="geogebra-sans-serif, sans-serif" font-size="12px" font-style="normal" font-weight="normal" text-decoration="normal" x="122" y="617" text-anchor="start" dominant-baseline="alphabetic" fill-opacity="1">–2</text><text fill="none" stroke="rgb(255,255,255)" font-family="geogebra-sans-serif, sans-serif" font-size="12px" font-style="normal" font-weight="normal" text-decoration="normal" x="131" y="438" text-anchor="start" dominant-baseline="alphabetic" stroke-opacity="1" stroke-miterlimit="10" stroke-width="4">2</text><text fill="rgb(0,0,0)" stroke="none" font-family="geogebra-sans-serif, sans-serif" font-size="12px" font-style="normal" font-weight="normal" text-decoration="normal" x="131" y="438" text-anchor="start" dominant-baseline="alphabetic" fill-opacity="1">2</text><text fill="none" stroke="rgb(255,255,255)" font-family="geogebra-sans-serif, sans-serif" font-size="12px" font-style="normal" font-weight="normal" text-decoration="normal" x="131" y="348" text-anchor="start" dominant-baseline="alphabetic" stroke-opacity="1" stroke-miterlimit="10" stroke-width="4">4</text><text fill="rgb(0,0,0)" stroke="none" font-family="geogebra-sans-serif, sans-serif" font-size="12px" font-style="normal" font-weight="normal" text-decoration="normal" x="131" y="348" text-anchor="start" dominant-baseline="alphabetic" fill-opacity="1">4</text><text fill="none" stroke="rgb(255,255,255)" font-family="geogebra-sans-serif, sans-serif" font-size="12px" font-style="normal" font-weight="normal" text-decoration="normal" x="131" y="258" text-anchor="start" dominant-baseline="alphabetic" stroke-opacity="1" stroke-miterlimit="10" stroke-width="4">6</text><text fill="rgb(0,0,0)" stroke="none" font-family="geogebra-sans-serif, sans-serif" font-size="12px" font-style="normal" font-weight="normal" text-decoration="normal" x="131" y="258" text-anchor="start" dominant-baseline="alphabetic" fill-opacity="1">6</text><text fill="none" stroke="rgb(255,255,255)" font-family="geogebra-sans-serif, sans-serif" font-size="12px" font-style="normal" font-weight="normal" text-decoration="normal" x="131" y="169" text-anchor="start" dominant-baseline="alphabetic" stroke-opacity="1" stroke-miterlimit="10" stroke-width="4">8</text><text fill="rgb(0,0,0)" stroke="none" font-family="geogebra-sans-serif, sans-serif" font-size="12px" font-style="normal" font-weight="normal" text-decoration="normal" x="131" y="169" text-anchor="start" dominant-baseline="alphabetic" fill-opacity="1">8</text><text fill="none" stroke="rgb(255,255,255)" font-family="geogebra-sans-serif, sans-serif" font-size="12px" font-style="normal" font-weight="normal" text-decoration="normal" x="124" y="79" text-anchor="start" dominant-baseline="alphabetic" stroke-opacity="1" stroke-miterlimit="10" stroke-width="4">10</text><text fill="rgb(0,0,0)" stroke="none" font-family="geogebra-sans-serif, sans-serif" font-size="12px" font-style="normal" font-weight="normal" text-decoration="normal" x="124" y="79" text-anchor="start" dominant-baseline="alphabetic" fill-opacity="1">10</text><text fill="none" stroke="rgb(255,255,255)" font-family="geogebra-sans-serif, sans-serif" font-size="12px" font-style="normal" font-weight="normal" text-decoration="normal" x="131" y="538" text-anchor="start" dominant-baseline="alphabetic" stroke-opacity="1" stroke-miterlimit="10" stroke-width="4">0</text><text fill="rgb(0,0,0)" stroke="none" font-family="geogebra-sans-serif, sans-serif" font-size="12px" font-style="normal" font-weight="normal" text-decoration="normal" x="131" y="538" text-anchor="start" dominant-baseline="alphabetic" fill-opacity="1">0</text><path fill="none" stroke="rgb(102,102,102)" paint-order="fill stroke markers" d=" M 144.03782891600244 298.7389651175088 L 148.2421875 301.86699003233775 M 148.2421875 301.86699003233775 L 152.734375 305.1505228857122 M 152.734375 305.1505228857122 L 157.2265625 308.36866885990844 L 161.71875 311.51597440262015 M 161.71875 311.51597440262015 L 166.2109375 314.5863621518332 L 170.703125 317.57303911628554 L 175.1953125 320.46838814593485 L 179.6875 323.26383903361955 M 179.6875 323.26383903361955 L 184.1796875 325.94971464394916 L 188.671875 328.5150462364814 L 193.1640625 330.9473505394536 L 197.65625 333.2323590012213 L 202.1484375 335.35368680693387 L 206.640625 337.2924254242443 L 211.1328125 339.026637239886 L 215.625 340.53072369374763 M 215.625 340.53072369374763 L 220.1171875 341.77462835828214 L 224.609375 342.7228223725464 L 229.1015625 343.332999576313 L 233.59375 343.55437958324524 L 238.0859375 343.32547411611097 L 242.578125 342.5711075163787 L 247.0703125 341.1983837685226 L 251.5625 339.09113825411924 L 256.0546875 336.1021656609662 L 260.546875 332.0421096837025 L 265.0390625 326.6632127686876 L 269.53125 319.6349199135021 L 274.0234375 310.5061382452051 L 276.26953125 304.9659711005058 L 278.515625 298.64478268820915 L 280.76171875 291.4188544810015 L 283.0078125 283.13688094350897 L 285.25390625 273.611826326421 L 286.376953125 268.31225047919384 L 287.5 262.6097160072784 M 287.5 262.6097160072784 L 288.623046875 256.46507199198174 L 289.74609375 249.833925959569 L 290.869140625 242.66573632594725 L 291.9921875 234.9027095094554 L 293.115234375 226.47845083902592 L 294.23828125 217.3163026576351 L 295.361328125 207.327281603845 L 295.9228515625 201.99089398800567 L 296.484375 196.40749756444234 L 297.0458984375 190.56124308106757 L 297.607421875 184.43489570002777 L 298.1689453125 178.00968019977574 L 298.73046875 171.2651049499786 L 299.2919921875 164.1787611838397 L 299.853515625 156.72609342655443 L 300.4150390625 148.88013612568335 L 300.9765625 140.6112105322826 L 301.5380859375 131.8865746531476 L 302.099609375 122.67001757319326 L 302.6611328125 112.92138755315898 L 302.94189453125 107.83378645298274 L 303.22265625 102.59604093725034 L 303.50341796875 97.20176272676707 L 303.7841796875 91.64419592091213 L 304.06494140625 85.91619016760814 L 304.345703125 80.01017144873322 L 304.62646484375 73.91811022999502 L 304.9072265625 67.63148669365302 L 305.18798828125 61.14125273754337 L 305.46875 54.437790383987476 L 305.74951171875 47.510866196549046 L 306.0302734375 40.34958125032466 L 306.31103515625 32.94231614136976 L 306.591796875 25.276670451728137 L 306.87255859375 17.339396006733125 L 307.1533203125 9.116323168988401 L 307.43408203125 0.5922793064451071 L 307.71484375 -8.249001552297386 M 323.3004093170166 702.0775850694462 L 323.30150604248047 702.0764883439822 L 327.9296875 697.4483068864628 L 332.421875 692.9561193864628 L 336.9140625 688.4639318864628 L 341.40625 683.9717443864628 L 345.8984375 679.4795568864628 L 350.390625 674.9873693864628 L 354.8828125 670.4951818864628 L 359.375 666.0029943864628 M 359.375 666.0029943864628 L 363.8671875 661.5108068864628 L 368.35937499999994 657.0186193864628 L 372.8515625 652.5264318864628 L 377.34375 648.0342443864628 L 381.8359375 643.5420568864628 L 386.328125 639.0498693864628 L 390.8203125 634.5576818864628 L 395.3125 630.0654943864628 M 395.3125 630.0654943864628 L 399.80468749999994 625.5733068864629 L 404.296875 621.0811193864628 M 404.296875 621.0811193864628 L 408.7890625 616.5889318864628 M 408.7890625 616.5889318864628 L 412.9306911517032 612.4473032347596" stroke-opacity="0.6980392156862745" stroke-linecap="round" stroke-linejoin="round" stroke-miterlimit="10" stroke-width="2.5"/><text fill="rgb(102,102,102)" stroke="none" font-family="geogebra-sans-serif, sans-serif" font-size="16px" font-style="normal" font-weight="normal" text-decoration="normal" x="184" y="307" text-anchor="start" dominant-baseline="alphabetic" fill-opacity="1">f</text><path fill="none" stroke="rgb(96,96,96)" paint-order="fill stroke markers" d=" M 233.66878314395427 717 L 233.66878314395427 -5" stroke-opacity="0.6980392156862745" stroke-linejoin="round" stroke-miterlimit="10" stroke-dasharray="9,8"/><text fill="rgb(96,96,96)" stroke="none" font-family="geogebra-sans-serif, sans-serif" font-size="16px" font-style="normal" font-weight="normal" text-decoration="normal" x="265" y="28" text-anchor="start" dominant-baseline="alphabetic" fill-opacity="1">I</text><text fill="rgb(96,96,96)" stroke="none" font-family="geogebra-sans-serif, sans-serif" font-size="14px" font-style="normal" font-weight="normal" text-decoration="normal" x="269" y="35" text-anchor="start" dominant-baseline="alphabetic" fill-opacity="1">2</text><path fill="none" stroke="rgb(96,96,96)" paint-order="fill stroke markers" d=" M 323.2997369237513 717 L 323.2997369237513 -5" stroke-opacity="0.6980392156862745" stroke-linejoin="round" stroke-miterlimit="10" stroke-width="1.5" stroke-dasharray="9.5,8"/><text fill="rgb(96,96,96)" stroke="none" font-family="geogebra-sans-serif, sans-serif" font-size="16px" font-style="normal" font-weight="normal" text-decoration="normal" x="357" y="27" text-anchor="start" dominant-baseline="alphabetic" fill-opacity="1">I</text><text fill="rgb(96,96,96)" stroke="none" font-family="geogebra-sans-serif, sans-serif" font-size="14px" font-style="normal" font-weight="normal" text-decoration="normal" x="361" y="34" text-anchor="start" dominant-baseline="alphabetic" fill-opacity="1">3</text><path fill="none" stroke="rgb(96,96,96)" paint-order="fill stroke markers" d=" M -5 702.0782574627113 L 1155 702.0782574627113" stroke-opacity="0.6980392156862745" stroke-linejoin="round" stroke-miterlimit="10" stroke-width="1.5" stroke-dasharray="9.5,8"/><path fill="none" stroke="rgb(96,96,96)" paint-order="fill stroke markers" d=" M 144.0378293641572 717 L 144.0378293641572 -5" stroke-opacity="0.6980392156862745" stroke-linejoin="round" stroke-miterlimit="10" stroke-width="0.5" stroke-dasharray="8.5,8"/><text fill="rgb(96,96,96)" stroke="none" font-family="geogebra-sans-serif, sans-serif" font-size="16px" font-style="normal" font-weight="normal" text-decoration="normal" x="183" y="29" text-anchor="start" dominant-baseline="alphabetic" fill-opacity="1">I </text><text fill="rgb(96,96,96)" stroke="none" font-family="geogebra-sans-serif, sans-serif" font-size="14px" font-style="normal" font-weight="normal" text-decoration="normal" x="191" y="36" text-anchor="start" dominant-baseline="alphabetic" fill-opacity="1">1</text><path fill="none" stroke="rgb(128,0,128)" paint-order="fill stroke markers" d=" M -5 433.1853961233204 L 1155 433.1853961233204" stroke-opacity="0.6980392156862745" stroke-linecap="round" stroke-linejoin="round" stroke-miterlimit="10" stroke-width="2.5"/><text fill="rgb(128,0,128)" stroke="none" font-family="geogebra-sans-serif, sans-serif" font-size="16px" font-style="normal" font-weight="normal" text-decoration="normal" x="5" y="425" text-anchor="start" dominant-baseline="alphabetic" fill-opacity="1">g</text><path fill="rgb(153,51,255)" stroke="none" paint-order="stroke fill markers" d=" M 144.0378293641572 0 L 144.0378293641572 702.0782574627113 L 412.9306907035484 702.0782574627113 L 412.9306907035484 0 Z" fill-opacity="0.24705882352941178"/><path fill="rgb(128,0,128)" stroke="none" paint-order="stroke fill markers" d=" M 238.66878314395427 343.5544423435234 C 238.66878314395427 346.31586609267737 236.43020689310825 348.5544423435234 233.66878314395427 348.5544423435234 C 230.9073593948003 348.5544423435234 228.66878314395427 346.31586609267737 228.66878314395427 343.5544423435234 C 228.66878314395427 340.79301859436947 230.9073593948003 338.5544423435234 233.66878314395427 338.5544423435234 C 236.43020689310825 338.5544423435234 238.66878314395427 340.79301859436947 238.66878314395427 343.5544423435234 Z" fill-opacity="1"/><path fill="none" stroke="rgb(0,0,0)" paint-order="fill stroke markers" d=" M 238.66878314395427 343.5544423435234 C 238.66878314395427 346.31586609267737 236.43020689310825 348.5544423435234 233.66878314395427 348.5544423435234 C 230.9073593948003 348.5544423435234 228.66878314395427 346.31586609267737 228.66878314395427 343.5544423435234 C 228.66878314395427 340.79301859436947 230.9073593948003 338.5544423435234 233.66878314395427 338.5544423435234 C 236.43020689310825 338.5544423435234 238.66878314395427 340.79301859436947 238.66878314395427 343.5544423435234 Z" stroke-opacity="1" stroke-linecap="round" stroke-linejoin="round" stroke-miterlimit="10"/><text fill="rgb(128,0,128)" stroke="none" font-family="geogebra-sans-serif, sans-serif" font-size="16px" font-style="normal" font-weight="normal" text-decoration="normal" x="203" y="371" text-anchor="start" dominant-baseline="alphabetic" fill-opacity="1">E</text><text fill="rgb(128,0,128)" stroke="none" font-family="geogebra-sans-serif, sans-serif" font-size="14px" font-style="normal" font-weight="normal" text-decoration="normal" x="212" y="378" text-anchor="start" dominant-baseline="alphabetic" fill-opacity="1">1</text><text fill="rgb(128,0,128)" stroke="none" font-family="geogebra-sans-serif, sans-serif" font-size="16px" font-style="normal" font-weight="normal" text-decoration="normal" x="219" y="371" text-anchor="start" dominant-baseline="alphabetic" fill-opacity="1"> = (2, 4)</text><path fill="rgb(128,0,128)" stroke="none" paint-order="stroke fill markers" d=" M 327.2997369237513 702.0782574627113 C 327.2997369237513 704.2873964620345 325.50887592307447 706.0782574627113 323.2997369237513 706.0782574627113 C 321.09059792442815 706.0782574627113 319.2997369237513 704.2873964620345 319.2997369237513 702.0782574627113 C 319.2997369237513 699.8691184633882 321.09059792442815 698.0782574627113 323.2997369237513 698.0782574627113 C 325.50887592307447 698.0782574627113 327.2997369237513 699.8691184633882 327.2997369237513 702.0782574627113 Z" fill-opacity="1"/><path fill="none" stroke="rgb(0,0,0)" paint-order="fill stroke markers" d=" M 327.2997369237513 702.0782574627113 C 327.2997369237513 704.2873964620345 325.50887592307447 706.0782574627113 323.2997369237513 706.0782574627113 C 321.09059792442815 706.0782574627113 319.2997369237513 704.2873964620345 319.2997369237513 702.0782574627113 C 319.2997369237513 699.8691184633882 321.09059792442815 698.0782574627113 323.2997369237513 698.0782574627113 C 325.50887592307447 698.0782574627113 327.2997369237513 699.8691184633882 327.2997369237513 702.0782574627113 Z" stroke-opacity="1" stroke-linecap="round" stroke-linejoin="round" stroke-miterlimit="10"/><text fill="rgb(128,0,128)" stroke="none" font-family="geogebra-sans-serif, sans-serif" font-size="16px" font-style="normal" font-weight="normal" text-decoration="normal" x="291" y="709" text-anchor="start" dominant-baseline="alphabetic" fill-opacity="1">E</text><text fill="rgb(128,0,128)" stroke="none" font-family="geogebra-sans-serif, sans-serif" font-size="14px" font-style="normal" font-weight="normal" text-decoration="normal" x="300" y="716" text-anchor="start" dominant-baseline="alphabetic" fill-opacity="1">2</text><text fill="rgb(128,0,128)" stroke="none" font-family="geogebra-sans-serif, sans-serif" font-size="16px" font-style="normal" font-weight="normal" text-decoration="normal" x="307" y="709" text-anchor="start" dominant-baseline="alphabetic" fill-opacity="1"> = (4, -4)</text></g></g></svg>