<svg version="1.1" xmlns="http://www.w3.org/2000/svg" xmlns:xlink="http://www.w3.org/1999/xlink" width="1150" height="712"><defs><clipPath id="HdeNiuTqOgzT"><path fill="none" stroke="none" d=" M 0 0 L 1150 0 L 1150 712 L 0 712 L 0 0 Z"/></clipPath></defs><g transform="scale(1,1)" clip-path="url(#HdeNiuTqOgzT)"><g><rect fill="rgb(255,255,255)" stroke="none" x="0" y="0" width="1150" height="712" fill-opacity="1"/><path fill="none" stroke="rgb(192,192,192)" paint-order="fill stroke markers" d=" M 54.5 0.5 L 54.5 712.5 M 54.5 0.5 L 54.5 712.5 M 233.5 0.5 L 233.5 712.5 M 323.5 0.5 L 323.5 712.5 M 412.5 0.5 L 412.5 712.5 M 502.5 0.5 L 502.5 712.5 M 592.5 0.5 L 592.5 712.5 M 681.5 0.5 L 681.5 712.5 M 771.5 0.5 L 771.5 712.5 M 861.5 0.5 L 861.5 712.5 M 950.5 0.5 L 950.5 712.5 M 1040.5 0.5 L 1040.5 712.5 M 1129.5 0.5 L 1129.5 712.5" stroke-opacity="1" stroke-linecap="round" stroke-linejoin="round" stroke-miterlimit="10"/><path fill="none" stroke="rgb(192,192,192)" paint-order="fill stroke markers" d=" M 0.5 0.5 L 0.5 712.5 M 18.5 0.5 L 18.5 712.5 M 36.5 0.5 L 36.5 712.5 M 72.5 0.5 L 72.5 712.5 M 90.5 0.5 L 90.5 712.5 M 108.5 0.5 L 108.5 712.5 M 126.5 0.5 L 126.5 712.5 M 161.5 0.5 L 161.5 712.5 M 179.5 0.5 L 179.5 712.5 M 197.5 0.5 L 197.5 712.5 M 215.5 0.5 L 215.5 712.5 M 251.5 0.5 L 251.5 712.5 M 269.5 0.5 L 269.5 712.5 M 287.5 0.5 L 287.5 712.5 M 305.5 0.5 L 305.5 712.5 M 341.5 0.5 L 341.5 712.5 M 359.5 0.5 L 359.5 712.5 M 377.5 0.5 L 377.5 712.5 M 395.5 0.5 L 395.5 712.5 M 430.5 0.5 L 430.5 712.5 M 448.5 0.5 L 448.5 712.5 M 466.5 0.5 L 466.5 712.5 M 484.5 0.5 L 484.5 712.5 M 520.5 0.5 L 520.5 712.5 M 538.5 0.5 L 538.5 712.5 M 556.5 0.5 L 556.5 712.5 M 574.5 0.5 L 574.5 712.5 M 610.5 0.5 L 610.5 712.5 M 628.5 0.5 L 628.5 712.5 M 645.5 0.5 L 645.5 712.5 M 663.5 0.5 L 663.5 712.5 M 699.5 0.5 L 699.5 712.5 M 717.5 0.5 L 717.5 712.5 M 735.5 0.5 L 735.5 712.5 M 753.5 0.5 L 753.5 712.5 M 789.5 0.5 L 789.5 712.5 M 807.5 0.5 L 807.5 712.5 M 825.5 0.5 L 825.5 712.5 M 843.5 0.5 L 843.5 712.5 M 879.5 0.5 L 879.5 712.5 M 896.5 0.5 L 896.5 712.5 M 914.5 0.5 L 914.5 712.5 M 932.5 0.5 L 932.5 712.5 M 968.5 0.5 L 968.5 712.5 M 986.5 0.5 L 986.5 712.5 M 1004.5 0.5 L 1004.5 712.5 M 1022.5 0.5 L 1022.5 712.5 M 1058.5 0.5 L 1058.5 712.5 M 1076.5 0.5 L 1076.5 712.5 M 1094.5 0.5 L 1094.5 712.5 M 1112.5 0.5 L 1112.5 712.5 M 1147.5 0.5 L 1147.5 712.5" stroke-opacity="0.23529411764705882" stroke-linecap="round" stroke-linejoin="round" stroke-miterlimit="10"/><path fill="none" stroke="rgb(192,192,192)" paint-order="fill stroke markers" d=" M 0.5 74.5 L 1150.5 74.5 M 0.5 74.5 L 1150.5 74.5 M 0.5 164.5 L 1150.5 164.5 M 0.5 253.5 L 1150.5 253.5 M 0.5 343.5 L 1150.5 343.5 M 0.5 433.5 L 1150.5 433.5 M 0.5 612.5 L 1150.5 612.5 M 0.5 702.5 L 1150.5 702.5" stroke-opacity="1" stroke-linecap="round" stroke-linejoin="round" stroke-miterlimit="10"/><path fill="none" stroke="rgb(192,192,192)" paint-order="fill stroke markers" d=" M 0.5 2.5 L 1150.5 2.5 M 0.5 20.5 L 1150.5 20.5 M 0.5 38.5 L 1150.5 38.5 M 0.5 56.5 L 1150.5 56.5 M 0.5 92.5 L 1150.5 92.5 M 0.5 110.5 L 1150.5 110.5 M 0.5 128.5 L 1150.5 128.5 M 0.5 146.5 L 1150.5 146.5 M 0.5 182.5 L 1150.5 182.5 M 0.5 200.5 L 1150.5 200.5 M 0.5 218.5 L 1150.5 218.5 M 0.5 235.5 L 1150.5 235.5 M 0.5 271.5 L 1150.5 271.5 M 0.5 289.5 L 1150.5 289.5 M 0.5 307.5 L 1150.5 307.5 M 0.5 325.5 L 1150.5 325.5 M 0.5 361.5 L 1150.5 361.5 M 0.5 379.5 L 1150.5 379.5 M 0.5 397.5 L 1150.5 397.5 M 0.5 415.5 L 1150.5 415.5 M 0.5 451.5 L 1150.5 451.5 M 0.5 469.5 L 1150.5 469.5 M 0.5 486.5 L 1150.5 486.5 M 0.5 504.5 L 1150.5 504.5 M 0.5 540.5 L 1150.5 540.5 M 0.5 558.5 L 1150.5 558.5 M 0.5 576.5 L 1150.5 576.5 M 0.5 594.5 L 1150.5 594.5 M 0.5 630.5 L 1150.5 630.5 M 0.5 648.5 L 1150.5 648.5 M 0.5 666.5 L 1150.5 666.5 M 0.5 684.5 L 1150.5 684.5" stroke-opacity="0.23529411764705882" stroke-linecap="round" stroke-linejoin="round" stroke-miterlimit="10"/><path fill="none" stroke="rgb(0,0,0)" paint-order="fill stroke markers" d=" M 144.5 2.5 L 144.5 712.5" stroke-opacity="1" stroke-miterlimit="10"/><path fill="none" stroke="rgb(0,0,0)" paint-order="fill stroke markers" d=" M 144.5 1.5 L 140.5 5.5" stroke-opacity="1" stroke-miterlimit="10"/><path fill="none" stroke="rgb(0,0,0)" paint-order="fill stroke markers" d=" M 144.5 1.5 L 148.5 5.5" stroke-opacity="1" stroke-miterlimit="10"/><path fill="none" stroke="rgb(0,0,0)" paint-order="fill stroke markers" d=" M 0.5 522.5 L 1148.5 522.5" stroke-opacity="1" stroke-miterlimit="10"/><path fill="none" stroke="rgb(0,0,0)" paint-order="fill stroke markers" d=" M 1149.5 522.5 L 1145.5 518.5" stroke-opacity="1" stroke-miterlimit="10"/><path fill="none" stroke="rgb(0,0,0)" paint-order="fill stroke markers" d=" M 1149.5 522.5 L 1145.5 526.5" stroke-opacity="1" stroke-miterlimit="10"/><text fill="none" stroke="rgb(255,255,255)" font-family="geogebra-sans-serif, sans-serif" font-size="12px" font-style="normal" font-weight="normal" text-decoration="normal" x="49" y="538" text-anchor="start" dominant-baseline="alphabetic" stroke-opacity="1" stroke-miterlimit="10" stroke-width="4">–2</text><text fill="rgb(0,0,0)" stroke="none" font-family="geogebra-sans-serif, sans-serif" font-size="12px" font-style="normal" font-weight="normal" text-decoration="normal" x="49" y="538" text-anchor="start" dominant-baseline="alphabetic" fill-opacity="1">–2</text><text fill="none" stroke="rgb(255,255,255)" font-family="geogebra-sans-serif, sans-serif" font-size="12px" font-style="normal" font-weight="normal" text-decoration="normal" x="231" y="538" text-anchor="start" dominant-baseline="alphabetic" stroke-opacity="1" stroke-miterlimit="10" stroke-width="4">2</text><text fill="rgb(0,0,0)" stroke="none" font-family="geogebra-sans-serif, sans-serif" font-size="12px" font-style="normal" font-weight="normal" text-decoration="normal" x="231" y="538" text-anchor="start" dominant-baseline="alphabetic" fill-opacity="1">2</text><text fill="none" stroke="rgb(255,255,255)" font-family="geogebra-sans-serif, sans-serif" font-size="12px" font-style="normal" font-weight="normal" text-decoration="normal" x="321" y="538" text-anchor="start" dominant-baseline="alphabetic" stroke-opacity="1" stroke-miterlimit="10" stroke-width="4">4</text><text fill="rgb(0,0,0)" stroke="none" font-family="geogebra-sans-serif, sans-serif" font-size="12px" font-style="normal" font-weight="normal" text-decoration="normal" x="321" y="538" text-anchor="start" dominant-baseline="alphabetic" fill-opacity="1">4</text><text fill="none" stroke="rgb(255,255,255)" font-family="geogebra-sans-serif, sans-serif" font-size="12px" font-style="normal" font-weight="normal" text-decoration="normal" x="410" y="538" text-anchor="start" dominant-baseline="alphabetic" stroke-opacity="1" stroke-miterlimit="10" stroke-width="4">6</text><text fill="rgb(0,0,0)" stroke="none" font-family="geogebra-sans-serif, sans-serif" font-size="12px" font-style="normal" font-weight="normal" text-decoration="normal" x="410" y="538" text-anchor="start" dominant-baseline="alphabetic" fill-opacity="1">6</text><text fill="none" stroke="rgb(255,255,255)" font-family="geogebra-sans-serif, sans-serif" font-size="12px" font-style="normal" font-weight="normal" text-decoration="normal" x="500" y="538" text-anchor="start" dominant-baseline="alphabetic" stroke-opacity="1" stroke-miterlimit="10" stroke-width="4">8</text><text fill="rgb(0,0,0)" stroke="none" font-family="geogebra-sans-serif, sans-serif" font-size="12px" font-style="normal" font-weight="normal" text-decoration="normal" x="500" y="538" text-anchor="start" dominant-baseline="alphabetic" fill-opacity="1">8</text><text fill="none" stroke="rgb(255,255,255)" font-family="geogebra-sans-serif, sans-serif" font-size="12px" font-style="normal" font-weight="normal" text-decoration="normal" x="587" y="538" text-anchor="start" dominant-baseline="alphabetic" stroke-opacity="1" stroke-miterlimit="10" stroke-width="4">10</text><text fill="rgb(0,0,0)" stroke="none" font-family="geogebra-sans-serif, sans-serif" font-size="12px" font-style="normal" font-weight="normal" text-decoration="normal" x="587" y="538" text-anchor="start" dominant-baseline="alphabetic" fill-opacity="1">10</text><text fill="none" stroke="rgb(255,255,255)" font-family="geogebra-sans-serif, sans-serif" font-size="12px" font-style="normal" font-weight="normal" text-decoration="normal" x="676" y="538" text-anchor="start" dominant-baseline="alphabetic" stroke-opacity="1" stroke-miterlimit="10" stroke-width="4">12</text><text fill="rgb(0,0,0)" stroke="none" font-family="geogebra-sans-serif, sans-serif" font-size="12px" font-style="normal" font-weight="normal" text-decoration="normal" x="676" y="538" text-anchor="start" dominant-baseline="alphabetic" fill-opacity="1">12</text><text fill="none" stroke="rgb(255,255,255)" font-family="geogebra-sans-serif, sans-serif" font-size="12px" font-style="normal" font-weight="normal" text-decoration="normal" x="766" y="538" text-anchor="start" dominant-baseline="alphabetic" stroke-opacity="1" stroke-miterlimit="10" stroke-width="4">14</text><text fill="rgb(0,0,0)" stroke="none" font-family="geogebra-sans-serif, sans-serif" font-size="12px" font-style="normal" font-weight="normal" text-decoration="normal" x="766" y="538" text-anchor="start" dominant-baseline="alphabetic" fill-opacity="1">14</text><text fill="none" stroke="rgb(255,255,255)" font-family="geogebra-sans-serif, sans-serif" font-size="12px" font-style="normal" font-weight="normal" text-decoration="normal" x="856" y="538" text-anchor="start" dominant-baseline="alphabetic" stroke-opacity="1" stroke-miterlimit="10" stroke-width="4">16</text><text fill="rgb(0,0,0)" stroke="none" font-family="geogebra-sans-serif, sans-serif" font-size="12px" font-style="normal" font-weight="normal" text-decoration="normal" x="856" y="538" text-anchor="start" dominant-baseline="alphabetic" fill-opacity="1">16</text><text fill="none" stroke="rgb(255,255,255)" font-family="geogebra-sans-serif, sans-serif" font-size="12px" font-style="normal" font-weight="normal" text-decoration="normal" x="945" y="538" text-anchor="start" dominant-baseline="alphabetic" stroke-opacity="1" stroke-miterlimit="10" stroke-width="4">18</text><text fill="rgb(0,0,0)" stroke="none" font-family="geogebra-sans-serif, sans-serif" font-size="12px" font-style="normal" font-weight="normal" text-decoration="normal" x="945" y="538" text-anchor="start" dominant-baseline="alphabetic" fill-opacity="1">18</text><text fill="none" stroke="rgb(255,255,255)" font-family="geogebra-sans-serif, sans-serif" font-size="12px" font-style="normal" font-weight="normal" text-decoration="normal" x="1035" y="538" text-anchor="start" dominant-baseline="alphabetic" stroke-opacity="1" stroke-miterlimit="10" stroke-width="4">20</text><text fill="rgb(0,0,0)" stroke="none" font-family="geogebra-sans-serif, sans-serif" font-size="12px" font-style="normal" font-weight="normal" text-decoration="normal" x="1035" y="538" text-anchor="start" dominant-baseline="alphabetic" fill-opacity="1">20</text><text fill="none" stroke="rgb(255,255,255)" font-family="geogebra-sans-serif, sans-serif" font-size="12px" font-style="normal" font-weight="normal" text-decoration="normal" x="1124" y="538" text-anchor="start" dominant-baseline="alphabetic" stroke-opacity="1" stroke-miterlimit="10" stroke-width="4">22</text><text fill="rgb(0,0,0)" stroke="none" font-family="geogebra-sans-serif, sans-serif" font-size="12px" font-style="normal" font-weight="normal" text-decoration="normal" x="1124" y="538" text-anchor="start" dominant-baseline="alphabetic" fill-opacity="1">22</text><text fill="none" stroke="rgb(255,255,255)" font-family="geogebra-sans-serif, sans-serif" font-size="12px" font-style="normal" font-weight="normal" text-decoration="normal" x="122" y="617" text-anchor="start" dominant-baseline="alphabetic" stroke-opacity="1" stroke-miterlimit="10" stroke-width="4">–2</text><text fill="rgb(0,0,0)" stroke="none" font-family="geogebra-sans-serif, sans-serif" font-size="12px" font-style="normal" font-weight="normal" text-decoration="normal" x="122" y="617" text-anchor="start" dominant-baseline="alphabetic" fill-opacity="1">–2</text><text fill="none" stroke="rgb(255,255,255)" font-family="geogebra-sans-serif, sans-serif" font-size="12px" font-style="normal" font-weight="normal" text-decoration="normal" x="131" y="438" text-anchor="start" dominant-baseline="alphabetic" stroke-opacity="1" stroke-miterlimit="10" stroke-width="4">2</text><text fill="rgb(0,0,0)" stroke="none" font-family="geogebra-sans-serif, sans-serif" font-size="12px" font-style="normal" font-weight="normal" text-decoration="normal" x="131" y="438" text-anchor="start" dominant-baseline="alphabetic" fill-opacity="1">2</text><text fill="none" stroke="rgb(255,255,255)" font-family="geogebra-sans-serif, sans-serif" font-size="12px" font-style="normal" font-weight="normal" text-decoration="normal" x="131" y="348" text-anchor="start" dominant-baseline="alphabetic" stroke-opacity="1" stroke-miterlimit="10" stroke-width="4">4</text><text fill="rgb(0,0,0)" stroke="none" font-family="geogebra-sans-serif, sans-serif" font-size="12px" font-style="normal" font-weight="normal" text-decoration="normal" x="131" y="348" text-anchor="start" dominant-baseline="alphabetic" fill-opacity="1">4</text><text fill="none" stroke="rgb(255,255,255)" font-family="geogebra-sans-serif, sans-serif" font-size="12px" font-style="normal" font-weight="normal" text-decoration="normal" x="131" y="258" text-anchor="start" dominant-baseline="alphabetic" stroke-opacity="1" stroke-miterlimit="10" stroke-width="4">6</text><text fill="rgb(0,0,0)" stroke="none" font-family="geogebra-sans-serif, sans-serif" font-size="12px" font-style="normal" font-weight="normal" text-decoration="normal" x="131" y="258" text-anchor="start" dominant-baseline="alphabetic" fill-opacity="1">6</text><text fill="none" stroke="rgb(255,255,255)" font-family="geogebra-sans-serif, sans-serif" font-size="12px" font-style="normal" font-weight="normal" text-decoration="normal" x="131" y="169" text-anchor="start" dominant-baseline="alphabetic" stroke-opacity="1" stroke-miterlimit="10" stroke-width="4">8</text><text fill="rgb(0,0,0)" stroke="none" font-family="geogebra-sans-serif, sans-serif" font-size="12px" font-style="normal" font-weight="normal" text-decoration="normal" x="131" y="169" text-anchor="start" dominant-baseline="alphabetic" fill-opacity="1">8</text><text fill="none" stroke="rgb(255,255,255)" font-family="geogebra-sans-serif, sans-serif" font-size="12px" font-style="normal" font-weight="normal" text-decoration="normal" x="124" y="79" text-anchor="start" dominant-baseline="alphabetic" stroke-opacity="1" stroke-miterlimit="10" stroke-width="4">10</text><text fill="rgb(0,0,0)" stroke="none" font-family="geogebra-sans-serif, sans-serif" font-size="12px" font-style="normal" font-weight="normal" text-decoration="normal" x="124" y="79" text-anchor="start" dominant-baseline="alphabetic" fill-opacity="1">10</text><text fill="none" stroke="rgb(255,255,255)" font-family="geogebra-sans-serif, sans-serif" font-size="12px" font-style="normal" font-weight="normal" text-decoration="normal" x="131" y="538" text-anchor="start" dominant-baseline="alphabetic" stroke-opacity="1" stroke-miterlimit="10" stroke-width="4">0</text><text fill="rgb(0,0,0)" stroke="none" font-family="geogebra-sans-serif, sans-serif" font-size="12px" font-style="normal" font-weight="normal" text-decoration="normal" x="131" y="538" text-anchor="start" dominant-baseline="alphabetic" fill-opacity="1">0</text><path fill="none" stroke="rgb(102,102,102)" paint-order="fill stroke markers" d=" M 144.03782891600247 388.36991889730587 L 148.2421875 391.49794381213474 M 148.2421875 391.49794381213474 L 152.734375 394.78147666550916 M 152.734375 394.78147666550916 L 157.2265625 397.9996226397054 L 161.71875 401.1469281824171 M 161.71875 401.1469281824171 L 166.2109375 404.21731593163025 L 170.703125 407.2039928960825 L 175.1953125 410.09934192573184 L 179.6875 412.89479281341653 M 179.6875 412.89479281341653 L 184.1796875 415.58066842374615 L 188.671875 418.1460000162783 L 193.1640625 420.57830431925055 L 197.65625 422.8633127810183 L 202.1484375 424.98464058673085 L 206.640625 426.92337920404134 L 211.1328125 428.657591019683 L 215.625 430.1616774735446 M 215.625 430.1616774735446 L 220.1171875 431.4055821380791 L 224.609375 432.35377615234336 L 229.1015625 432.96395335611 L 233.59375 433.1853333630422 L 238.0859375 432.95642789590795 L 242.578125 432.20206129617566 L 247.0703125 430.8293375483196 L 251.5625 428.7220920339163 L 256.0546875 425.73311944076323 L 260.546875 421.6730634634996 L 265.0390625 416.29416654848467 L 269.53125 409.26587369329917 L 274.0234375 400.13709202500223 L 276.26953125 394.5969248803029 L 278.515625 388.27573646800624 L 280.76171875 381.0498082607986 L 283.0078125 372.7678347233061 L 285.25390625 363.24278010621816 L 286.376953125 357.94320425899105 L 287.5 352.2406697870756 M 287.5 352.2406697870756 L 288.623046875 346.096025771779 L 289.74609375 339.4648797393662 L 290.869140625 332.2966901057445 L 291.9921875 324.5336632892527 L 293.115234375 316.1094046188233 L 294.23828125 306.94725643743243 L 295.361328125 296.9582353836423 L 295.9228515625 291.62184776780305 L 296.484375 286.0384513442398 L 297.0458984375 280.19219686086495 L 297.607421875 274.06584947982526 L 298.1689453125 267.64063397957324 L 298.73046875 260.89605872977603 L 299.2919921875 253.80971496363725 L 299.853515625 246.35704720635198 L 300.4150390625 238.5110899054809 L 300.9765625 230.2421643120802 L 301.5380859375 221.51752843294526 L 302.099609375 212.30097135299087 L 302.6611328125 202.55234133295664 L 302.94189453125 197.4647402327804 L 303.22265625 192.22699471704811 L 303.50341796875 186.83271650656485 L 303.7841796875 181.27514970070985 L 304.06494140625 175.5471439474059 L 304.345703125 169.64112522853117 L 304.62646484375 163.54906400979297 L 304.9072265625 157.2624404734509 L 305.18798828125 150.77220651734132 L 305.46875 144.06874416378548 L 305.74951171875 137.141819976347 L 306.0302734375 129.98053503012278 L 306.31103515625 122.57326992116788 L 306.591796875 114.90762423152626 L 306.87255859375 106.9703497865313 L 307.1533203125 98.74727694878652 L 307.43408203125 90.22323308624328 L 307.71484375 81.38195222750085 L 307.99560546875 72.20597477260156 L 308.2763671875 62.67653595839596 L 308.55712890625 52.77344157936142 L 308.697509765625 47.67503818202624 L 308.837890625 42.47492923190845 L 308.978271484375 37.17012393599907 L 309.11865234375 31.757513075907752 L 309.259033203125 26.233863087693294 L 309.3994140625 20.59580978297356 L 309.539794921875 14.839851685677331 L 309.68017578125 8.962342956720818 L 309.820556640625 2.9594858765606205 L 309.9609375 -3.1726771469459436 L 310.101318359375 -9.438272080715251 M 323.3004093170166 522.8160137064848 L 323.30150604248047 522.8154653437529 L 327.9296875 520.5013746149931 L 332.421875 518.2552808649931 L 336.9140625 516.0091871149931 L 341.40625 513.7630933649931 L 345.8984375 511.5169996149931 L 350.390625 509.2709058649931 L 354.8828125 507.0248121149931 L 359.375 504.7787183649931 M 359.375 504.7787183649931 L 363.8671875 502.5326246149931 L 368.359375 500.2865308649931 L 372.8515625 498.0404371149931 L 377.34375 495.7943433649931 L 381.8359375 493.5482496149931 L 386.328125 491.3021558649931 L 390.8203125 489.0560621149931 L 395.3125 486.8099683649931 M 395.3125 486.8099683649931 L 399.8046875 484.5638746149931 L 404.296875 482.3177808649931 M 404.296875 482.3177808649931 L 408.7890625 480.0716871149931 M 408.7890625 480.0716871149931 L 412.93069115170323 478.0008727891415" stroke-opacity="0.6980392156862745" stroke-linecap="round" stroke-linejoin="round" stroke-miterlimit="10" stroke-width="2.5"/><text fill="rgb(102,102,102)" stroke="none" font-family="geogebra-sans-serif, sans-serif" font-size="16px" font-style="normal" font-weight="normal" text-decoration="normal" x="185" y="398" text-anchor="start" dominant-baseline="alphabetic" fill-opacity="1">f</text><path fill="none" stroke="rgb(96,96,96)" paint-order="fill stroke markers" d=" M 233.66878314395433 717 L 233.66878314395433 -5" stroke-opacity="0.6980392156862745" stroke-linejoin="round" stroke-miterlimit="10" stroke-dasharray="9,8"/><text fill="rgb(96,96,96)" stroke="none" font-family="geogebra-sans-serif, sans-serif" font-size="16px" font-style="normal" font-weight="normal" text-decoration="normal" x="265" y="28" text-anchor="start" dominant-baseline="alphabetic" fill-opacity="1">I</text><text fill="rgb(96,96,96)" stroke="none" font-family="geogebra-sans-serif, sans-serif" font-size="14px" font-style="normal" font-weight="normal" text-decoration="normal" x="269" y="35" text-anchor="start" dominant-baseline="alphabetic" fill-opacity="1">2</text><path fill="none" stroke="rgb(96,96,96)" paint-order="fill stroke markers" d=" M 323.2997369237514 717 L 323.2997369237514 -5" stroke-opacity="0.6980392156862745" stroke-linejoin="round" stroke-miterlimit="10" stroke-width="1.5" stroke-dasharray="9.5,8"/><text fill="rgb(96,96,96)" stroke="none" font-family="geogebra-sans-serif, sans-serif" font-size="16px" font-style="normal" font-weight="normal" text-decoration="normal" x="357" y="27" text-anchor="start" dominant-baseline="alphabetic" fill-opacity="1">I</text><text fill="rgb(96,96,96)" stroke="none" font-family="geogebra-sans-serif, sans-serif" font-size="14px" font-style="normal" font-weight="normal" text-decoration="normal" x="361" y="34" text-anchor="start" dominant-baseline="alphabetic" fill-opacity="1">3</text><path fill="none" stroke="rgb(96,96,96)" paint-order="fill stroke markers" d=" M -5 702.0782574627113 L 1155 702.0782574627113" stroke-opacity="0.6980392156862745" stroke-linejoin="round" stroke-miterlimit="10" stroke-width="1.5" stroke-dasharray="9.5,8"/><path fill="none" stroke="rgb(96,96,96)" paint-order="fill stroke markers" d=" M 144.03782936415723 717 L 144.03782936415723 -5" stroke-opacity="0.6980392156862745" stroke-linejoin="round" stroke-miterlimit="10" stroke-width="0.5" stroke-dasharray="8.5,8"/><text fill="rgb(96,96,96)" stroke="none" font-family="geogebra-sans-serif, sans-serif" font-size="16px" font-style="normal" font-weight="normal" text-decoration="normal" x="183" y="29" text-anchor="start" dominant-baseline="alphabetic" fill-opacity="1">I </text><text fill="rgb(96,96,96)" stroke="none" font-family="geogebra-sans-serif, sans-serif" font-size="14px" font-style="normal" font-weight="normal" text-decoration="normal" x="191" y="36" text-anchor="start" dominant-baseline="alphabetic" fill-opacity="1">1</text><path fill="rgb(153,51,255)" stroke="none" paint-order="stroke fill markers" d=" M 144.03782936415723 0 L 144.03782936415723 433.1853961233204 L 412.93069070354846 433.1853961233204 L 412.93069070354846 0 Z M 144.03782936415723 478.0008730132189 L 144.03782936415723 522.8163499031174 L 412.93069070354846 522.8163499031174 L 412.93069070354846 478.0008730132189 Z" fill-opacity="0.24705882352941178"/><path fill="rgb(128,0,128)" stroke="none" paint-order="stroke fill markers" d=" M 238.66878314395433 433.1853961233204 C 238.66878314395433 435.94681987247435 236.4302068931083 438.1853961233204 233.66878314395433 438.1853961233204 C 230.90735939480035 438.1853961233204 228.66878314395433 435.94681987247435 228.66878314395433 433.1853961233204 C 228.66878314395433 430.42397237416645 230.90735939480035 428.1853961233204 233.66878314395433 428.1853961233204 C 236.4302068931083 428.1853961233204 238.66878314395433 430.42397237416645 238.66878314395433 433.1853961233204 Z" fill-opacity="1"/><path fill="none" stroke="rgb(0,0,0)" paint-order="fill stroke markers" d=" M 238.66878314395433 433.1853961233204 C 238.66878314395433 435.94681987247435 236.4302068931083 438.1853961233204 233.66878314395433 438.1853961233204 C 230.90735939480035 438.1853961233204 228.66878314395433 435.94681987247435 228.66878314395433 433.1853961233204 C 228.66878314395433 430.42397237416645 230.90735939480035 428.1853961233204 233.66878314395433 428.1853961233204 C 236.4302068931083 428.1853961233204 238.66878314395433 430.42397237416645 238.66878314395433 433.1853961233204 Z" stroke-opacity="1" stroke-linecap="round" stroke-linejoin="round" stroke-miterlimit="10"/><text fill="rgb(128,0,128)" stroke="none" font-family="geogebra-sans-serif, sans-serif" font-size="16px" font-style="normal" font-weight="normal" text-decoration="normal" x="203" y="460" text-anchor="start" dominant-baseline="alphabetic" fill-opacity="1">E</text><text fill="rgb(128,0,128)" stroke="none" font-family="geogebra-sans-serif, sans-serif" font-size="14px" font-style="normal" font-weight="normal" text-decoration="normal" x="212" y="467" text-anchor="start" dominant-baseline="alphabetic" fill-opacity="1">1</text><text fill="rgb(128,0,128)" stroke="none" font-family="geogebra-sans-serif, sans-serif" font-size="16px" font-style="normal" font-weight="normal" text-decoration="normal" x="219" y="460" text-anchor="start" dominant-baseline="alphabetic" fill-opacity="1"> = (2, 2)</text><path fill="rgb(128,0,128)" stroke="none" paint-order="stroke fill markers" d=" M 327.2997369237514 522.8163499031174 C 327.2997369237514 525.0254889024405 325.5088759230746 526.8163499031174 323.2997369237514 526.8163499031174 C 321.09059792442827 526.8163499031174 319.2997369237514 525.0254889024405 319.2997369237514 522.8163499031174 C 319.2997369237514 520.6072109037942 321.09059792442827 518.8163499031174 323.2997369237514 518.8163499031174 C 325.5088759230746 518.8163499031174 327.2997369237514 520.6072109037942 327.2997369237514 522.8163499031174 Z" fill-opacity="1"/><path fill="none" stroke="rgb(0,0,0)" paint-order="fill stroke markers" d=" M 327.2997369237514 522.8163499031174 C 327.2997369237514 525.0254889024405 325.5088759230746 526.8163499031174 323.2997369237514 526.8163499031174 C 321.09059792442827 526.8163499031174 319.2997369237514 525.0254889024405 319.2997369237514 522.8163499031174 C 319.2997369237514 520.6072109037942 321.09059792442827 518.8163499031174 323.2997369237514 518.8163499031174 C 325.5088759230746 518.8163499031174 327.2997369237514 520.6072109037942 327.2997369237514 522.8163499031174 Z" stroke-opacity="1" stroke-linecap="round" stroke-linejoin="round" stroke-miterlimit="10"/><text fill="rgb(128,0,128)" stroke="none" font-family="geogebra-sans-serif, sans-serif" font-size="16px" font-style="normal" font-weight="normal" text-decoration="normal" x="297" y="553" text-anchor="start" dominant-baseline="alphabetic" fill-opacity="1">E</text><text fill="rgb(128,0,128)" stroke="none" font-family="geogebra-sans-serif, sans-serif" font-size="14px" font-style="normal" font-weight="normal" text-decoration="normal" x="306" y="560" text-anchor="start" dominant-baseline="alphabetic" fill-opacity="1">2</text><text fill="rgb(128,0,128)" stroke="none" font-family="geogebra-sans-serif, sans-serif" font-size="16px" font-style="normal" font-weight="normal" text-decoration="normal" x="313" y="553" text-anchor="start" dominant-baseline="alphabetic" fill-opacity="1"> = (4, 0)</text></g></g></svg>