<svg version="1.1" xmlns="http://www.w3.org/2000/svg" xmlns:xlink="http://www.w3.org/1999/xlink" width="1150" height="712"><defs><clipPath id="TDWRCeqmcPtM"><path fill="none" stroke="none" d=" M 0 0 L 1150 0 L 1150 712 L 0 712 L 0 0 Z"/></clipPath></defs><g transform="scale(1,1)" clip-path="url(#TDWRCeqmcPtM)"><g><rect fill="rgb(255,255,255)" stroke="none" x="0" y="0" width="1150" height="712" fill-opacity="1"/><path fill="none" stroke="rgb(192,192,192)" paint-order="fill stroke markers" d=" M 54.5 0.5 L 54.5 712.5 M 54.5 0.5 L 54.5 712.5 M 233.5 0.5 L 233.5 712.5 M 323.5 0.5 L 323.5 712.5 M 412.5 0.5 L 412.5 712.5 M 502.5 0.5 L 502.5 712.5 M 592.5 0.5 L 592.5 712.5 M 681.5 0.5 L 681.5 712.5 M 771.5 0.5 L 771.5 712.5 M 861.5 0.5 L 861.5 712.5 M 950.5 0.5 L 950.5 712.5 M 1040.5 0.5 L 1040.5 712.5 M 1129.5 0.5 L 1129.5 712.5" stroke-opacity="1" stroke-linecap="round" stroke-linejoin="round" stroke-miterlimit="10"/><path fill="none" stroke="rgb(192,192,192)" paint-order="fill stroke markers" d=" M 0.5 0.5 L 0.5 712.5 M 18.5 0.5 L 18.5 712.5 M 36.5 0.5 L 36.5 712.5 M 72.5 0.5 L 72.5 712.5 M 90.5 0.5 L 90.5 712.5 M 108.5 0.5 L 108.5 712.5 M 126.5 0.5 L 126.5 712.5 M 161.5 0.5 L 161.5 712.5 M 179.5 0.5 L 179.5 712.5 M 197.5 0.5 L 197.5 712.5 M 215.5 0.5 L 215.5 712.5 M 251.5 0.5 L 251.5 712.5 M 269.5 0.5 L 269.5 712.5 M 287.5 0.5 L 287.5 712.5 M 305.5 0.5 L 305.5 712.5 M 341.5 0.5 L 341.5 712.5 M 359.5 0.5 L 359.5 712.5 M 377.5 0.5 L 377.5 712.5 M 395.5 0.5 L 395.5 712.5 M 430.5 0.5 L 430.5 712.5 M 448.5 0.5 L 448.5 712.5 M 466.5 0.5 L 466.5 712.5 M 484.5 0.5 L 484.5 712.5 M 520.5 0.5 L 520.5 712.5 M 538.5 0.5 L 538.5 712.5 M 556.5 0.5 L 556.5 712.5 M 574.5 0.5 L 574.5 712.5 M 610.5 0.5 L 610.5 712.5 M 628.5 0.5 L 628.5 712.5 M 645.5 0.5 L 645.5 712.5 M 663.5 0.5 L 663.5 712.5 M 699.5 0.5 L 699.5 712.5 M 717.5 0.5 L 717.5 712.5 M 735.5 0.5 L 735.5 712.5 M 753.5 0.5 L 753.5 712.5 M 789.5 0.5 L 789.5 712.5 M 807.5 0.5 L 807.5 712.5 M 825.5 0.5 L 825.5 712.5 M 843.5 0.5 L 843.5 712.5 M 879.5 0.5 L 879.5 712.5 M 896.5 0.5 L 896.5 712.5 M 914.5 0.5 L 914.5 712.5 M 932.5 0.5 L 932.5 712.5 M 968.5 0.5 L 968.5 712.5 M 986.5 0.5 L 986.5 712.5 M 1004.5 0.5 L 1004.5 712.5 M 1022.5 0.5 L 1022.5 712.5 M 1058.5 0.5 L 1058.5 712.5 M 1076.5 0.5 L 1076.5 712.5 M 1094.5 0.5 L 1094.5 712.5 M 1112.5 0.5 L 1112.5 712.5 M 1147.5 0.5 L 1147.5 712.5" stroke-opacity="0.23529411764705882" stroke-linecap="round" stroke-linejoin="round" stroke-miterlimit="10"/><path fill="none" stroke="rgb(192,192,192)" paint-order="fill stroke markers" d=" M 0.5 74.5 L 1150.5 74.5 M 0.5 74.5 L 1150.5 74.5 M 0.5 164.5 L 1150.5 164.5 M 0.5 253.5 L 1150.5 253.5 M 0.5 343.5 L 1150.5 343.5 M 0.5 433.5 L 1150.5 433.5 M 0.5 612.5 L 1150.5 612.5 M 0.5 702.5 L 1150.5 702.5" stroke-opacity="1" stroke-linecap="round" stroke-linejoin="round" stroke-miterlimit="10"/><path fill="none" stroke="rgb(192,192,192)" paint-order="fill stroke markers" d=" M 0.5 2.5 L 1150.5 2.5 M 0.5 20.5 L 1150.5 20.5 M 0.5 38.5 L 1150.5 38.5 M 0.5 56.5 L 1150.5 56.5 M 0.5 92.5 L 1150.5 92.5 M 0.5 110.5 L 1150.5 110.5 M 0.5 128.5 L 1150.5 128.5 M 0.5 146.5 L 1150.5 146.5 M 0.5 182.5 L 1150.5 182.5 M 0.5 200.5 L 1150.5 200.5 M 0.5 218.5 L 1150.5 218.5 M 0.5 235.5 L 1150.5 235.5 M 0.5 271.5 L 1150.5 271.5 M 0.5 289.5 L 1150.5 289.5 M 0.5 307.5 L 1150.5 307.5 M 0.5 325.5 L 1150.5 325.5 M 0.5 361.5 L 1150.5 361.5 M 0.5 379.5 L 1150.5 379.5 M 0.5 397.5 L 1150.5 397.5 M 0.5 415.5 L 1150.5 415.5 M 0.5 451.5 L 1150.5 451.5 M 0.5 469.5 L 1150.5 469.5 M 0.5 486.5 L 1150.5 486.5 M 0.5 504.5 L 1150.5 504.5 M 0.5 540.5 L 1150.5 540.5 M 0.5 558.5 L 1150.5 558.5 M 0.5 576.5 L 1150.5 576.5 M 0.5 594.5 L 1150.5 594.5 M 0.5 630.5 L 1150.5 630.5 M 0.5 648.5 L 1150.5 648.5 M 0.5 666.5 L 1150.5 666.5 M 0.5 684.5 L 1150.5 684.5" stroke-opacity="0.23529411764705882" stroke-linecap="round" stroke-linejoin="round" stroke-miterlimit="10"/><path fill="none" stroke="rgb(0,0,0)" paint-order="fill stroke markers" d=" M 144.5 2.5 L 144.5 712.5" stroke-opacity="1" stroke-miterlimit="10"/><path fill="none" stroke="rgb(0,0,0)" paint-order="fill stroke markers" d=" M 144.5 1.5 L 140.5 5.5" stroke-opacity="1" stroke-miterlimit="10"/><path fill="none" stroke="rgb(0,0,0)" paint-order="fill stroke markers" d=" M 144.5 1.5 L 148.5 5.5" stroke-opacity="1" stroke-miterlimit="10"/><path fill="none" stroke="rgb(0,0,0)" paint-order="fill stroke markers" d=" M 0.5 522.5 L 1148.5 522.5" stroke-opacity="1" stroke-miterlimit="10"/><path fill="none" stroke="rgb(0,0,0)" paint-order="fill stroke markers" d=" M 1149.5 522.5 L 1145.5 518.5" stroke-opacity="1" stroke-miterlimit="10"/><path fill="none" stroke="rgb(0,0,0)" paint-order="fill stroke markers" d=" M 1149.5 522.5 L 1145.5 526.5" stroke-opacity="1" stroke-miterlimit="10"/><text fill="none" stroke="rgb(255,255,255)" font-family="geogebra-sans-serif, sans-serif" font-size="12px" font-style="normal" font-weight="normal" text-decoration="normal" x="49" y="538" text-anchor="start" dominant-baseline="alphabetic" stroke-opacity="1" stroke-miterlimit="10" stroke-width="4">–2</text><text fill="rgb(0,0,0)" stroke="none" font-family="geogebra-sans-serif, sans-serif" font-size="12px" font-style="normal" font-weight="normal" text-decoration="normal" x="49" y="538" text-anchor="start" dominant-baseline="alphabetic" fill-opacity="1">–2</text><text fill="none" stroke="rgb(255,255,255)" font-family="geogebra-sans-serif, sans-serif" font-size="12px" font-style="normal" font-weight="normal" text-decoration="normal" x="231" y="538" text-anchor="start" dominant-baseline="alphabetic" stroke-opacity="1" stroke-miterlimit="10" stroke-width="4">2</text><text fill="rgb(0,0,0)" stroke="none" font-family="geogebra-sans-serif, sans-serif" font-size="12px" font-style="normal" font-weight="normal" text-decoration="normal" x="231" y="538" text-anchor="start" dominant-baseline="alphabetic" fill-opacity="1">2</text><text fill="none" stroke="rgb(255,255,255)" font-family="geogebra-sans-serif, sans-serif" font-size="12px" font-style="normal" font-weight="normal" text-decoration="normal" x="321" y="538" text-anchor="start" dominant-baseline="alphabetic" stroke-opacity="1" stroke-miterlimit="10" stroke-width="4">4</text><text fill="rgb(0,0,0)" stroke="none" font-family="geogebra-sans-serif, sans-serif" font-size="12px" font-style="normal" font-weight="normal" text-decoration="normal" x="321" y="538" text-anchor="start" dominant-baseline="alphabetic" fill-opacity="1">4</text><text fill="none" stroke="rgb(255,255,255)" font-family="geogebra-sans-serif, sans-serif" font-size="12px" font-style="normal" font-weight="normal" text-decoration="normal" x="410" y="538" text-anchor="start" dominant-baseline="alphabetic" stroke-opacity="1" stroke-miterlimit="10" stroke-width="4">6</text><text fill="rgb(0,0,0)" stroke="none" font-family="geogebra-sans-serif, sans-serif" font-size="12px" font-style="normal" font-weight="normal" text-decoration="normal" x="410" y="538" text-anchor="start" dominant-baseline="alphabetic" fill-opacity="1">6</text><text fill="none" stroke="rgb(255,255,255)" font-family="geogebra-sans-serif, sans-serif" font-size="12px" font-style="normal" font-weight="normal" text-decoration="normal" x="500" y="538" text-anchor="start" dominant-baseline="alphabetic" stroke-opacity="1" stroke-miterlimit="10" stroke-width="4">8</text><text fill="rgb(0,0,0)" stroke="none" font-family="geogebra-sans-serif, sans-serif" font-size="12px" font-style="normal" font-weight="normal" text-decoration="normal" x="500" y="538" text-anchor="start" dominant-baseline="alphabetic" fill-opacity="1">8</text><text fill="none" stroke="rgb(255,255,255)" font-family="geogebra-sans-serif, sans-serif" font-size="12px" font-style="normal" font-weight="normal" text-decoration="normal" x="587" y="538" text-anchor="start" dominant-baseline="alphabetic" stroke-opacity="1" stroke-miterlimit="10" stroke-width="4">10</text><text fill="rgb(0,0,0)" stroke="none" font-family="geogebra-sans-serif, sans-serif" font-size="12px" font-style="normal" font-weight="normal" text-decoration="normal" x="587" y="538" text-anchor="start" dominant-baseline="alphabetic" fill-opacity="1">10</text><text fill="none" stroke="rgb(255,255,255)" font-family="geogebra-sans-serif, sans-serif" font-size="12px" font-style="normal" font-weight="normal" text-decoration="normal" x="676" y="538" text-anchor="start" dominant-baseline="alphabetic" stroke-opacity="1" stroke-miterlimit="10" stroke-width="4">12</text><text fill="rgb(0,0,0)" stroke="none" font-family="geogebra-sans-serif, sans-serif" font-size="12px" font-style="normal" font-weight="normal" text-decoration="normal" x="676" y="538" text-anchor="start" dominant-baseline="alphabetic" fill-opacity="1">12</text><text fill="none" stroke="rgb(255,255,255)" font-family="geogebra-sans-serif, sans-serif" font-size="12px" font-style="normal" font-weight="normal" text-decoration="normal" x="766" y="538" text-anchor="start" dominant-baseline="alphabetic" stroke-opacity="1" stroke-miterlimit="10" stroke-width="4">14</text><text fill="rgb(0,0,0)" stroke="none" font-family="geogebra-sans-serif, sans-serif" font-size="12px" font-style="normal" font-weight="normal" text-decoration="normal" x="766" y="538" text-anchor="start" dominant-baseline="alphabetic" fill-opacity="1">14</text><text fill="none" stroke="rgb(255,255,255)" font-family="geogebra-sans-serif, sans-serif" font-size="12px" font-style="normal" font-weight="normal" text-decoration="normal" x="856" y="538" text-anchor="start" dominant-baseline="alphabetic" stroke-opacity="1" stroke-miterlimit="10" stroke-width="4">16</text><text fill="rgb(0,0,0)" stroke="none" font-family="geogebra-sans-serif, sans-serif" font-size="12px" font-style="normal" font-weight="normal" text-decoration="normal" x="856" y="538" text-anchor="start" dominant-baseline="alphabetic" fill-opacity="1">16</text><text fill="none" stroke="rgb(255,255,255)" font-family="geogebra-sans-serif, sans-serif" font-size="12px" font-style="normal" font-weight="normal" text-decoration="normal" x="945" y="538" text-anchor="start" dominant-baseline="alphabetic" stroke-opacity="1" stroke-miterlimit="10" stroke-width="4">18</text><text fill="rgb(0,0,0)" stroke="none" font-family="geogebra-sans-serif, sans-serif" font-size="12px" font-style="normal" font-weight="normal" text-decoration="normal" x="945" y="538" text-anchor="start" dominant-baseline="alphabetic" fill-opacity="1">18</text><text fill="none" stroke="rgb(255,255,255)" font-family="geogebra-sans-serif, sans-serif" font-size="12px" font-style="normal" font-weight="normal" text-decoration="normal" x="1035" y="538" text-anchor="start" dominant-baseline="alphabetic" stroke-opacity="1" stroke-miterlimit="10" stroke-width="4">20</text><text fill="rgb(0,0,0)" stroke="none" font-family="geogebra-sans-serif, sans-serif" font-size="12px" font-style="normal" font-weight="normal" text-decoration="normal" x="1035" y="538" text-anchor="start" dominant-baseline="alphabetic" fill-opacity="1">20</text><text fill="none" stroke="rgb(255,255,255)" font-family="geogebra-sans-serif, sans-serif" font-size="12px" font-style="normal" font-weight="normal" text-decoration="normal" x="1124" y="538" text-anchor="start" dominant-baseline="alphabetic" stroke-opacity="1" stroke-miterlimit="10" stroke-width="4">22</text><text fill="rgb(0,0,0)" stroke="none" font-family="geogebra-sans-serif, sans-serif" font-size="12px" font-style="normal" font-weight="normal" text-decoration="normal" x="1124" y="538" text-anchor="start" dominant-baseline="alphabetic" fill-opacity="1">22</text><text fill="none" stroke="rgb(255,255,255)" font-family="geogebra-sans-serif, sans-serif" font-size="12px" font-style="normal" font-weight="normal" text-decoration="normal" x="122" y="617" text-anchor="start" dominant-baseline="alphabetic" stroke-opacity="1" stroke-miterlimit="10" stroke-width="4">–2</text><text fill="rgb(0,0,0)" stroke="none" font-family="geogebra-sans-serif, sans-serif" font-size="12px" font-style="normal" font-weight="normal" text-decoration="normal" x="122" y="617" text-anchor="start" dominant-baseline="alphabetic" fill-opacity="1">–2</text><text fill="none" stroke="rgb(255,255,255)" font-family="geogebra-sans-serif, sans-serif" font-size="12px" font-style="normal" font-weight="normal" text-decoration="normal" x="131" y="438" text-anchor="start" dominant-baseline="alphabetic" stroke-opacity="1" stroke-miterlimit="10" stroke-width="4">2</text><text fill="rgb(0,0,0)" stroke="none" font-family="geogebra-sans-serif, sans-serif" font-size="12px" font-style="normal" font-weight="normal" text-decoration="normal" x="131" y="438" text-anchor="start" dominant-baseline="alphabetic" fill-opacity="1">2</text><text fill="none" stroke="rgb(255,255,255)" font-family="geogebra-sans-serif, sans-serif" font-size="12px" font-style="normal" font-weight="normal" text-decoration="normal" x="131" y="348" text-anchor="start" dominant-baseline="alphabetic" stroke-opacity="1" stroke-miterlimit="10" stroke-width="4">4</text><text fill="rgb(0,0,0)" stroke="none" font-family="geogebra-sans-serif, sans-serif" font-size="12px" font-style="normal" font-weight="normal" text-decoration="normal" x="131" y="348" text-anchor="start" dominant-baseline="alphabetic" fill-opacity="1">4</text><text fill="none" stroke="rgb(255,255,255)" font-family="geogebra-sans-serif, sans-serif" font-size="12px" font-style="normal" font-weight="normal" text-decoration="normal" x="131" y="258" text-anchor="start" dominant-baseline="alphabetic" stroke-opacity="1" stroke-miterlimit="10" stroke-width="4">6</text><text fill="rgb(0,0,0)" stroke="none" font-family="geogebra-sans-serif, sans-serif" font-size="12px" font-style="normal" font-weight="normal" text-decoration="normal" x="131" y="258" text-anchor="start" dominant-baseline="alphabetic" fill-opacity="1">6</text><text fill="none" stroke="rgb(255,255,255)" font-family="geogebra-sans-serif, sans-serif" font-size="12px" font-style="normal" font-weight="normal" text-decoration="normal" x="131" y="169" text-anchor="start" dominant-baseline="alphabetic" stroke-opacity="1" stroke-miterlimit="10" stroke-width="4">8</text><text fill="rgb(0,0,0)" stroke="none" font-family="geogebra-sans-serif, sans-serif" font-size="12px" font-style="normal" font-weight="normal" text-decoration="normal" x="131" y="169" text-anchor="start" dominant-baseline="alphabetic" fill-opacity="1">8</text><text fill="none" stroke="rgb(255,255,255)" font-family="geogebra-sans-serif, sans-serif" font-size="12px" font-style="normal" font-weight="normal" text-decoration="normal" x="124" y="79" text-anchor="start" dominant-baseline="alphabetic" stroke-opacity="1" stroke-miterlimit="10" stroke-width="4">10</text><text fill="rgb(0,0,0)" stroke="none" font-family="geogebra-sans-serif, sans-serif" font-size="12px" font-style="normal" font-weight="normal" text-decoration="normal" x="124" y="79" text-anchor="start" dominant-baseline="alphabetic" fill-opacity="1">10</text><text fill="none" stroke="rgb(255,255,255)" font-family="geogebra-sans-serif, sans-serif" font-size="12px" font-style="normal" font-weight="normal" text-decoration="normal" x="131" y="538" text-anchor="start" dominant-baseline="alphabetic" stroke-opacity="1" stroke-miterlimit="10" stroke-width="4">0</text><text fill="rgb(0,0,0)" stroke="none" font-family="geogebra-sans-serif, sans-serif" font-size="12px" font-style="normal" font-weight="normal" text-decoration="normal" x="131" y="538" text-anchor="start" dominant-baseline="alphabetic" fill-opacity="1">0</text><path fill="none" stroke="rgb(102,102,102)" paint-order="fill stroke markers" d=" M 144.03782891600244 388.36991889730587 L 148.2421875 391.49794381213474 M 148.2421875 391.49794381213474 L 152.734375 394.78147666550916 M 152.734375 394.78147666550916 L 157.2265625 397.9996226397055 L 161.71875 401.1469281824171 M 161.71875 401.1469281824171 L 166.2109375 404.21731593163025 L 170.703125 407.2039928960825 L 175.1953125 410.09934192573184 L 179.6875 412.8947928134166 M 179.6875 412.8947928134166 L 184.1796875 415.58066842374615 L 188.671875 418.1460000162784 L 193.1640625 420.57830431925055 L 197.65625 422.8633127810183 L 202.1484375 424.98464058673085 L 206.640625 426.92337920404134 L 211.1328125 428.657591019683 L 215.625 430.1616774735446 M 215.625 430.1616774735446 L 220.1171875 431.4055821380791 L 224.609375 432.35377615234336 L 229.1015625 432.96395335611 L 233.59375 433.1853333630422 L 238.0859375 432.95642789590795 L 242.578125 432.20206129617566 L 247.0703125 430.8293375483196 L 251.5625 428.7220920339162 L 256.0546875 425.73311944076323 L 260.546875 421.67306346349955 L 265.0390625 416.2941665484846 L 269.53125 409.2658736932991 L 274.0234375 400.1370920250021 L 276.26953125 394.59692488030277 L 278.515625 388.27573646800613 L 280.76171875 381.0498082607985 L 283.0078125 372.767834723306 L 285.25390625 363.242780106218 L 286.376953125 357.9432042589908 L 287.5 352.2406697870754 M 287.5 352.2406697870754 L 288.623046875 346.0960257717788 L 289.74609375 339.464879739366 L 290.869140625 332.29669010574423 L 291.9921875 324.5336632892524 L 293.115234375 316.10940461882296 L 294.23828125 306.9472564374321 L 295.361328125 296.958235383642 L 295.9228515625 291.6218477678027 L 296.484375 286.0384513442393 L 297.0458984375 280.19219686086456 L 297.607421875 274.0658494798248 L 298.1689453125 267.6406339795727 L 298.73046875 260.8960587297756 L 299.2919921875 253.80971496363674 L 299.853515625 246.3570472063514 L 300.4150390625 238.5110899054804 L 300.9765625 230.24216431207958 L 301.5380859375 221.51752843294463 L 302.099609375 212.30097135299025 L 302.6611328125 202.55234133295602 L 302.94189453125 197.46474023277966 L 303.22265625 192.22699471704732 L 303.50341796875 186.8327165065641 L 303.7841796875 181.27514970070905 L 304.06494140625 175.54714394740512 L 304.345703125 169.64112522853026 L 304.62646484375 163.54906400979206 L 304.9072265625 157.26244047345006 L 305.18798828125 150.77220651734035 L 305.46875 144.06874416378452 L 305.74951171875 137.14181997634608 L 306.0302734375 129.9805350301217 L 306.31103515625 122.57326992116674 L 306.591796875 114.90762423152518 L 306.87255859375 106.97034978653011 L 307.1533203125 98.74727694878538 L 307.43408203125 90.22323308624209 L 307.71484375 81.3819522274996 L 307.99560546875 72.20597477260031 L 308.2763671875 62.67653595839454 L 308.55712890625 52.77344157936 L 308.697509765625 47.67503818202488 L 308.837890625 42.47492923190691 L 308.978271484375 37.17012393599754 L 309.11865234375 31.757513075906218 L 309.259033203125 26.233863087691702 L 309.3994140625 20.595809782971912 L 309.539794921875 14.839851685675683 L 309.68017578125 8.962342956719112 L 309.820556640625 2.9594858765588015 L 309.9609375 -3.172677146947649 L 310.101318359375 -9.438272080716956 M 323.3004093170166 702.0775850694462 L 323.30150604248047 702.0764883439822 L 327.9296875 697.4483068864628 L 332.421875 692.9561193864628 L 336.9140625 688.4639318864628 L 341.40625 683.9717443864628 L 345.8984375 679.4795568864628 L 350.390625 674.9873693864628 L 354.8828125 670.4951818864628 L 359.375 666.0029943864628 M 359.375 666.0029943864628 L 363.8671875 661.5108068864628 L 368.35937499999994 657.0186193864628 L 372.8515625 652.5264318864628 L 377.34375 648.0342443864628 L 381.8359375 643.5420568864628 L 386.328125 639.0498693864628 L 390.8203125 634.5576818864628 L 395.3125 630.0654943864628 M 395.3125 630.0654943864628 L 399.80468749999994 625.5733068864629 L 404.296875 621.0811193864628 M 404.296875 621.0811193864628 L 408.7890625 616.5889318864628 M 408.7890625 616.5889318864628 L 412.9306911517032 612.4473032347596" stroke-opacity="0.6980392156862745" stroke-linecap="round" stroke-linejoin="round" stroke-miterlimit="10" stroke-width="2.5"/><text fill="rgb(102,102,102)" stroke="none" font-family="geogebra-sans-serif, sans-serif" font-size="16px" font-style="normal" font-weight="normal" text-decoration="normal" x="180" y="395" text-anchor="start" dominant-baseline="alphabetic" fill-opacity="1">f</text><path fill="none" stroke="rgb(96,96,96)" paint-order="fill stroke markers" d=" M 233.66878314395427 717 L 233.66878314395427 -5" stroke-opacity="0.6980392156862745" stroke-linejoin="round" stroke-miterlimit="10" stroke-dasharray="9,8"/><text fill="rgb(96,96,96)" stroke="none" font-family="geogebra-sans-serif, sans-serif" font-size="16px" font-style="normal" font-weight="normal" text-decoration="normal" x="265" y="28" text-anchor="start" dominant-baseline="alphabetic" fill-opacity="1">I</text><text fill="rgb(96,96,96)" stroke="none" font-family="geogebra-sans-serif, sans-serif" font-size="14px" font-style="normal" font-weight="normal" text-decoration="normal" x="269" y="35" text-anchor="start" dominant-baseline="alphabetic" fill-opacity="1">2</text><path fill="none" stroke="rgb(96,96,96)" paint-order="fill stroke markers" d=" M 323.2997369237513 717 L 323.2997369237513 -5" stroke-opacity="0.6980392156862745" stroke-linejoin="round" stroke-miterlimit="10" stroke-width="1.5" stroke-dasharray="9.5,8"/><text fill="rgb(96,96,96)" stroke="none" font-family="geogebra-sans-serif, sans-serif" font-size="16px" font-style="normal" font-weight="normal" text-decoration="normal" x="357" y="27" text-anchor="start" dominant-baseline="alphabetic" fill-opacity="1">I</text><text fill="rgb(96,96,96)" stroke="none" font-family="geogebra-sans-serif, sans-serif" font-size="14px" font-style="normal" font-weight="normal" text-decoration="normal" x="361" y="34" text-anchor="start" dominant-baseline="alphabetic" fill-opacity="1">3</text><path fill="none" stroke="rgb(96,96,96)" paint-order="fill stroke markers" d=" M -5 702.0782574627113 L 1155 702.0782574627113" stroke-opacity="0.6980392156862745" stroke-linejoin="round" stroke-miterlimit="10" stroke-width="1.5" stroke-dasharray="9.5,8"/><path fill="none" stroke="rgb(96,96,96)" paint-order="fill stroke markers" d=" M 144.0378293641572 717 L 144.0378293641572 -5" stroke-opacity="0.6980392156862745" stroke-linejoin="round" stroke-miterlimit="10" stroke-width="0.5" stroke-dasharray="8.5,8"/><text fill="rgb(96,96,96)" stroke="none" font-family="geogebra-sans-serif, sans-serif" font-size="16px" font-style="normal" font-weight="normal" text-decoration="normal" x="183" y="29" text-anchor="start" dominant-baseline="alphabetic" fill-opacity="1">I </text><text fill="rgb(96,96,96)" stroke="none" font-family="geogebra-sans-serif, sans-serif" font-size="14px" font-style="normal" font-weight="normal" text-decoration="normal" x="191" y="36" text-anchor="start" dominant-baseline="alphabetic" fill-opacity="1">1</text><path fill="rgb(153,51,255)" stroke="none" paint-order="stroke fill markers" d=" M 144.0378293641572 0 L 144.0378293641572 702.0782574627113 L 412.9306907035484 702.0782574627113 L 412.9306907035484 0 Z" fill-opacity="0.24705882352941178"/><path fill="none" stroke="rgb(0,0,0)" paint-order="fill stroke markers" d=" M 345.7074753687006 365.96218078847266 L 382.92032113509987 291.53648925567427" stroke-opacity="0.6980392156862745" stroke-linecap="round" stroke-linejoin="round" stroke-miterlimit="10" stroke-width="2.5"/><path fill="rgb(0,0,0)" stroke="none" paint-order="stroke fill markers" fill-rule="evenodd" d=" M 390.52295225859916 276.3312270086757 L 386.7216366968495 293.4371470365491 L 379.11900557335025 289.63583147479943 Z" fill-opacity="0.6980392156862745"/><path fill="rgb(128,0,128)" stroke="none" paint-order="stroke fill markers" d=" M 238.66878314395427 433.1853961233204 C 238.66878314395427 435.94681987247435 236.43020689310825 438.1853961233204 233.66878314395427 438.1853961233204 C 230.9073593948003 438.1853961233204 228.66878314395427 435.94681987247435 228.66878314395427 433.1853961233204 C 228.66878314395427 430.42397237416645 230.9073593948003 428.1853961233204 233.66878314395427 428.1853961233204 C 236.43020689310825 428.1853961233204 238.66878314395427 430.42397237416645 238.66878314395427 433.1853961233204 Z" fill-opacity="1"/><path fill="none" stroke="rgb(0,0,0)" paint-order="fill stroke markers" d=" M 238.66878314395427 433.1853961233204 C 238.66878314395427 435.94681987247435 236.43020689310825 438.1853961233204 233.66878314395427 438.1853961233204 C 230.9073593948003 438.1853961233204 228.66878314395427 435.94681987247435 228.66878314395427 433.1853961233204 C 228.66878314395427 430.42397237416645 230.9073593948003 428.1853961233204 233.66878314395427 428.1853961233204 C 236.43020689310825 428.1853961233204 238.66878314395427 430.42397237416645 238.66878314395427 433.1853961233204 Z" stroke-opacity="1" stroke-linecap="round" stroke-linejoin="round" stroke-miterlimit="10"/><text fill="rgb(128,0,128)" stroke="none" font-family="geogebra-sans-serif, sans-serif" font-size="16px" font-style="normal" font-weight="normal" text-decoration="normal" x="203" y="460" text-anchor="start" dominant-baseline="alphabetic" fill-opacity="1">E</text><text fill="rgb(128,0,128)" stroke="none" font-family="geogebra-sans-serif, sans-serif" font-size="14px" font-style="normal" font-weight="normal" text-decoration="normal" x="212" y="467" text-anchor="start" dominant-baseline="alphabetic" fill-opacity="1">1</text><text fill="rgb(128,0,128)" stroke="none" font-family="geogebra-sans-serif, sans-serif" font-size="16px" font-style="normal" font-weight="normal" text-decoration="normal" x="219" y="460" text-anchor="start" dominant-baseline="alphabetic" fill-opacity="1"> = (2, 2)</text><path fill="rgb(128,0,128)" stroke="none" paint-order="stroke fill markers" d=" M 327.2997369237513 702.0782574627113 C 327.2997369237513 704.2873964620345 325.50887592307447 706.0782574627113 323.2997369237513 706.0782574627113 C 321.09059792442815 706.0782574627113 319.2997369237513 704.2873964620345 319.2997369237513 702.0782574627113 C 319.2997369237513 699.8691184633882 321.09059792442815 698.0782574627113 323.2997369237513 698.0782574627113 C 325.50887592307447 698.0782574627113 327.2997369237513 699.8691184633882 327.2997369237513 702.0782574627113 Z" fill-opacity="1"/><path fill="none" stroke="rgb(0,0,0)" paint-order="fill stroke markers" d=" M 327.2997369237513 702.0782574627113 C 327.2997369237513 704.2873964620345 325.50887592307447 706.0782574627113 323.2997369237513 706.0782574627113 C 321.09059792442815 706.0782574627113 319.2997369237513 704.2873964620345 319.2997369237513 702.0782574627113 C 319.2997369237513 699.8691184633882 321.09059792442815 698.0782574627113 323.2997369237513 698.0782574627113 C 325.50887592307447 698.0782574627113 327.2997369237513 699.8691184633882 327.2997369237513 702.0782574627113 Z" stroke-opacity="1" stroke-linecap="round" stroke-linejoin="round" stroke-miterlimit="10"/><text fill="rgb(128,0,128)" stroke="none" font-family="geogebra-sans-serif, sans-serif" font-size="16px" font-style="normal" font-weight="normal" text-decoration="normal" x="291" y="709" text-anchor="start" dominant-baseline="alphabetic" fill-opacity="1">E</text><text fill="rgb(128,0,128)" stroke="none" font-family="geogebra-sans-serif, sans-serif" font-size="14px" font-style="normal" font-weight="normal" text-decoration="normal" x="300" y="716" text-anchor="start" dominant-baseline="alphabetic" fill-opacity="1">2</text><text fill="rgb(128,0,128)" stroke="none" font-family="geogebra-sans-serif, sans-serif" font-size="16px" font-style="normal" font-weight="normal" text-decoration="normal" x="307" y="709" text-anchor="start" dominant-baseline="alphabetic" fill-opacity="1"> = (4, -4)</text></g></g></svg>