<svg version="1.1" xmlns="http://www.w3.org/2000/svg" xmlns:xlink="http://www.w3.org/1999/xlink" width="1164" height="748"><defs><clipPath id="OHCtagZONrKT"><path fill="none" stroke="none" d=" M 0 0 L 1164 0 L 1164 748 L 0 748 L 0 0 Z"/></clipPath></defs><g transform="scale(1,1)" clip-path="url(#OHCtagZONrKT)"><g><rect fill="rgb(255,255,255)" stroke="none" x="0" y="0" width="1164" height="748" fill-opacity="1"/><path fill="none" stroke="rgb(192,192,192)" paint-order="fill stroke markers" d=" M 54.5 0.5 L 54.5 748.5 M 54.5 0.5 L 54.5 748.5 M 233.5 0.5 L 233.5 748.5 M 323.5 0.5 L 323.5 748.5 M 412.5 0.5 L 412.5 748.5 M 502.5 0.5 L 502.5 748.5 M 592.5 0.5 L 592.5 748.5 M 681.5 0.5 L 681.5 748.5 M 771.5 0.5 L 771.5 748.5 M 861.5 0.5 L 861.5 748.5 M 950.5 0.5 L 950.5 748.5 M 1040.5 0.5 L 1040.5 748.5 M 1129.5 0.5 L 1129.5 748.5" stroke-opacity="1" stroke-linecap="round" stroke-linejoin="round" stroke-miterlimit="10"/><path fill="none" stroke="rgb(192,192,192)" paint-order="fill stroke markers" d=" M 0.5 0.5 L 0.5 748.5 M 18.5 0.5 L 18.5 748.5 M 36.5 0.5 L 36.5 748.5 M 72.5 0.5 L 72.5 748.5 M 90.5 0.5 L 90.5 748.5 M 108.5 0.5 L 108.5 748.5 M 126.5 0.5 L 126.5 748.5 M 161.5 0.5 L 161.5 748.5 M 179.5 0.5 L 179.5 748.5 M 197.5 0.5 L 197.5 748.5 M 215.5 0.5 L 215.5 748.5 M 251.5 0.5 L 251.5 748.5 M 269.5 0.5 L 269.5 748.5 M 287.5 0.5 L 287.5 748.5 M 305.5 0.5 L 305.5 748.5 M 341.5 0.5 L 341.5 748.5 M 359.5 0.5 L 359.5 748.5 M 377.5 0.5 L 377.5 748.5 M 395.5 0.5 L 395.5 748.5 M 430.5 0.5 L 430.5 748.5 M 448.5 0.5 L 448.5 748.5 M 466.5 0.5 L 466.5 748.5 M 484.5 0.5 L 484.5 748.5 M 520.5 0.5 L 520.5 748.5 M 538.5 0.5 L 538.5 748.5 M 556.5 0.5 L 556.5 748.5 M 574.5 0.5 L 574.5 748.5 M 610.5 0.5 L 610.5 748.5 M 628.5 0.5 L 628.5 748.5 M 645.5 0.5 L 645.5 748.5 M 663.5 0.5 L 663.5 748.5 M 699.5 0.5 L 699.5 748.5 M 717.5 0.5 L 717.5 748.5 M 735.5 0.5 L 735.5 748.5 M 753.5 0.5 L 753.5 748.5 M 789.5 0.5 L 789.5 748.5 M 807.5 0.5 L 807.5 748.5 M 825.5 0.5 L 825.5 748.5 M 843.5 0.5 L 843.5 748.5 M 879.5 0.5 L 879.5 748.5 M 896.5 0.5 L 896.5 748.5 M 914.5 0.5 L 914.5 748.5 M 932.5 0.5 L 932.5 748.5 M 968.5 0.5 L 968.5 748.5 M 986.5 0.5 L 986.5 748.5 M 1004.5 0.5 L 1004.5 748.5 M 1022.5 0.5 L 1022.5 748.5 M 1058.5 0.5 L 1058.5 748.5 M 1076.5 0.5 L 1076.5 748.5 M 1094.5 0.5 L 1094.5 748.5 M 1112.5 0.5 L 1112.5 748.5 M 1147.5 0.5 L 1147.5 748.5" stroke-opacity="0.23529411764705882" stroke-linecap="round" stroke-linejoin="round" stroke-miterlimit="10"/><path fill="none" stroke="rgb(192,192,192)" paint-order="fill stroke markers" d=" M 0.5 74.5 L 1164.5 74.5 M 0.5 74.5 L 1164.5 74.5 M 0.5 164.5 L 1164.5 164.5 M 0.5 253.5 L 1164.5 253.5 M 0.5 343.5 L 1164.5 343.5 M 0.5 433.5 L 1164.5 433.5 M 0.5 612.5 L 1164.5 612.5 M 0.5 702.5 L 1164.5 702.5" stroke-opacity="1" stroke-linecap="round" stroke-linejoin="round" stroke-miterlimit="10"/><path fill="none" stroke="rgb(192,192,192)" paint-order="fill stroke markers" d=" M 0.5 2.5 L 1164.5 2.5 M 0.5 20.5 L 1164.5 20.5 M 0.5 38.5 L 1164.5 38.5 M 0.5 56.5 L 1164.5 56.5 M 0.5 92.5 L 1164.5 92.5 M 0.5 110.5 L 1164.5 110.5 M 0.5 128.5 L 1164.5 128.5 M 0.5 146.5 L 1164.5 146.5 M 0.5 182.5 L 1164.5 182.5 M 0.5 200.5 L 1164.5 200.5 M 0.5 218.5 L 1164.5 218.5 M 0.5 235.5 L 1164.5 235.5 M 0.5 271.5 L 1164.5 271.5 M 0.5 289.5 L 1164.5 289.5 M 0.5 307.5 L 1164.5 307.5 M 0.5 325.5 L 1164.5 325.5 M 0.5 361.5 L 1164.5 361.5 M 0.5 379.5 L 1164.5 379.5 M 0.5 397.5 L 1164.5 397.5 M 0.5 415.5 L 1164.5 415.5 M 0.5 451.5 L 1164.5 451.5 M 0.5 469.5 L 1164.5 469.5 M 0.5 486.5 L 1164.5 486.5 M 0.5 504.5 L 1164.5 504.5 M 0.5 540.5 L 1164.5 540.5 M 0.5 558.5 L 1164.5 558.5 M 0.5 576.5 L 1164.5 576.5 M 0.5 594.5 L 1164.5 594.5 M 0.5 630.5 L 1164.5 630.5 M 0.5 648.5 L 1164.5 648.5 M 0.5 666.5 L 1164.5 666.5 M 0.5 684.5 L 1164.5 684.5 M 0.5 720.5 L 1164.5 720.5 M 0.5 737.5 L 1164.5 737.5" stroke-opacity="0.23529411764705882" stroke-linecap="round" stroke-linejoin="round" stroke-miterlimit="10"/><path fill="none" stroke="rgb(0,0,0)" paint-order="fill stroke markers" d=" M 144.5 2.5 L 144.5 748.5" stroke-opacity="1" stroke-miterlimit="10"/><path fill="none" stroke="rgb(0,0,0)" paint-order="fill stroke markers" d=" M 144.5 1.5 L 140.5 5.5" stroke-opacity="1" stroke-miterlimit="10"/><path fill="none" stroke="rgb(0,0,0)" paint-order="fill stroke markers" d=" M 144.5 1.5 L 148.5 5.5" stroke-opacity="1" stroke-miterlimit="10"/><path fill="none" stroke="rgb(0,0,0)" paint-order="fill stroke markers" d=" M 0.5 522.5 L 1162.5 522.5" stroke-opacity="1" stroke-miterlimit="10"/><path fill="none" stroke="rgb(0,0,0)" paint-order="fill stroke markers" d=" M 1163.5 522.5 L 1159.5 518.5" stroke-opacity="1" stroke-miterlimit="10"/><path fill="none" stroke="rgb(0,0,0)" paint-order="fill stroke markers" d=" M 1163.5 522.5 L 1159.5 526.5" stroke-opacity="1" stroke-miterlimit="10"/><text fill="none" stroke="rgb(255,255,255)" font-family="geogebra-sans-serif, sans-serif" font-size="12px" font-style="normal" font-weight="normal" text-decoration="normal" x="49" y="538" text-anchor="start" dominant-baseline="alphabetic" stroke-opacity="1" stroke-miterlimit="10" stroke-width="4">–2</text><text fill="rgb(0,0,0)" stroke="none" font-family="geogebra-sans-serif, sans-serif" font-size="12px" font-style="normal" font-weight="normal" text-decoration="normal" x="49" y="538" text-anchor="start" dominant-baseline="alphabetic" fill-opacity="1">–2</text><text fill="none" stroke="rgb(255,255,255)" font-family="geogebra-sans-serif, sans-serif" font-size="12px" font-style="normal" font-weight="normal" text-decoration="normal" x="231" y="538" text-anchor="start" dominant-baseline="alphabetic" stroke-opacity="1" stroke-miterlimit="10" stroke-width="4">2</text><text fill="rgb(0,0,0)" stroke="none" font-family="geogebra-sans-serif, sans-serif" font-size="12px" font-style="normal" font-weight="normal" text-decoration="normal" x="231" y="538" text-anchor="start" dominant-baseline="alphabetic" fill-opacity="1">2</text><text fill="none" stroke="rgb(255,255,255)" font-family="geogebra-sans-serif, sans-serif" font-size="12px" font-style="normal" font-weight="normal" text-decoration="normal" x="321" y="538" text-anchor="start" dominant-baseline="alphabetic" stroke-opacity="1" stroke-miterlimit="10" stroke-width="4">4</text><text fill="rgb(0,0,0)" stroke="none" font-family="geogebra-sans-serif, sans-serif" font-size="12px" font-style="normal" font-weight="normal" text-decoration="normal" x="321" y="538" text-anchor="start" dominant-baseline="alphabetic" fill-opacity="1">4</text><text fill="none" stroke="rgb(255,255,255)" font-family="geogebra-sans-serif, sans-serif" font-size="12px" font-style="normal" font-weight="normal" text-decoration="normal" x="410" y="538" text-anchor="start" dominant-baseline="alphabetic" stroke-opacity="1" stroke-miterlimit="10" stroke-width="4">6</text><text fill="rgb(0,0,0)" stroke="none" font-family="geogebra-sans-serif, sans-serif" font-size="12px" font-style="normal" font-weight="normal" text-decoration="normal" x="410" y="538" text-anchor="start" dominant-baseline="alphabetic" fill-opacity="1">6</text><text fill="none" stroke="rgb(255,255,255)" font-family="geogebra-sans-serif, sans-serif" font-size="12px" font-style="normal" font-weight="normal" text-decoration="normal" x="500" y="538" text-anchor="start" dominant-baseline="alphabetic" stroke-opacity="1" stroke-miterlimit="10" stroke-width="4">8</text><text fill="rgb(0,0,0)" stroke="none" font-family="geogebra-sans-serif, sans-serif" font-size="12px" font-style="normal" font-weight="normal" text-decoration="normal" x="500" y="538" text-anchor="start" dominant-baseline="alphabetic" fill-opacity="1">8</text><text fill="none" stroke="rgb(255,255,255)" font-family="geogebra-sans-serif, sans-serif" font-size="12px" font-style="normal" font-weight="normal" text-decoration="normal" x="587" y="538" text-anchor="start" dominant-baseline="alphabetic" stroke-opacity="1" stroke-miterlimit="10" stroke-width="4">10</text><text fill="rgb(0,0,0)" stroke="none" font-family="geogebra-sans-serif, sans-serif" font-size="12px" font-style="normal" font-weight="normal" text-decoration="normal" x="587" y="538" text-anchor="start" dominant-baseline="alphabetic" fill-opacity="1">10</text><text fill="none" stroke="rgb(255,255,255)" font-family="geogebra-sans-serif, sans-serif" font-size="12px" font-style="normal" font-weight="normal" text-decoration="normal" x="676" y="538" text-anchor="start" dominant-baseline="alphabetic" stroke-opacity="1" stroke-miterlimit="10" stroke-width="4">12</text><text fill="rgb(0,0,0)" stroke="none" font-family="geogebra-sans-serif, sans-serif" font-size="12px" font-style="normal" font-weight="normal" text-decoration="normal" x="676" y="538" text-anchor="start" dominant-baseline="alphabetic" fill-opacity="1">12</text><text fill="none" stroke="rgb(255,255,255)" font-family="geogebra-sans-serif, sans-serif" font-size="12px" font-style="normal" font-weight="normal" text-decoration="normal" x="766" y="538" text-anchor="start" dominant-baseline="alphabetic" stroke-opacity="1" stroke-miterlimit="10" stroke-width="4">14</text><text fill="rgb(0,0,0)" stroke="none" font-family="geogebra-sans-serif, sans-serif" font-size="12px" font-style="normal" font-weight="normal" text-decoration="normal" x="766" y="538" text-anchor="start" dominant-baseline="alphabetic" fill-opacity="1">14</text><text fill="none" stroke="rgb(255,255,255)" font-family="geogebra-sans-serif, sans-serif" font-size="12px" font-style="normal" font-weight="normal" text-decoration="normal" x="856" y="538" text-anchor="start" dominant-baseline="alphabetic" stroke-opacity="1" stroke-miterlimit="10" stroke-width="4">16</text><text fill="rgb(0,0,0)" stroke="none" font-family="geogebra-sans-serif, sans-serif" font-size="12px" font-style="normal" font-weight="normal" text-decoration="normal" x="856" y="538" text-anchor="start" dominant-baseline="alphabetic" fill-opacity="1">16</text><text fill="none" stroke="rgb(255,255,255)" font-family="geogebra-sans-serif, sans-serif" font-size="12px" font-style="normal" font-weight="normal" text-decoration="normal" x="945" y="538" text-anchor="start" dominant-baseline="alphabetic" stroke-opacity="1" stroke-miterlimit="10" stroke-width="4">18</text><text fill="rgb(0,0,0)" stroke="none" font-family="geogebra-sans-serif, sans-serif" font-size="12px" font-style="normal" font-weight="normal" text-decoration="normal" x="945" y="538" text-anchor="start" dominant-baseline="alphabetic" fill-opacity="1">18</text><text fill="none" stroke="rgb(255,255,255)" font-family="geogebra-sans-serif, sans-serif" font-size="12px" font-style="normal" font-weight="normal" text-decoration="normal" x="1035" y="538" text-anchor="start" dominant-baseline="alphabetic" stroke-opacity="1" stroke-miterlimit="10" stroke-width="4">20</text><text fill="rgb(0,0,0)" stroke="none" font-family="geogebra-sans-serif, sans-serif" font-size="12px" font-style="normal" font-weight="normal" text-decoration="normal" x="1035" y="538" text-anchor="start" dominant-baseline="alphabetic" fill-opacity="1">20</text><text fill="none" stroke="rgb(255,255,255)" font-family="geogebra-sans-serif, sans-serif" font-size="12px" font-style="normal" font-weight="normal" text-decoration="normal" x="1124" y="538" text-anchor="start" dominant-baseline="alphabetic" stroke-opacity="1" stroke-miterlimit="10" stroke-width="4">22</text><text fill="rgb(0,0,0)" stroke="none" font-family="geogebra-sans-serif, sans-serif" font-size="12px" font-style="normal" font-weight="normal" text-decoration="normal" x="1124" y="538" text-anchor="start" dominant-baseline="alphabetic" fill-opacity="1">22</text><text fill="none" stroke="rgb(255,255,255)" font-family="geogebra-sans-serif, sans-serif" font-size="12px" font-style="normal" font-weight="normal" text-decoration="normal" x="122" y="707" text-anchor="start" dominant-baseline="alphabetic" stroke-opacity="1" stroke-miterlimit="10" stroke-width="4">–4</text><text fill="rgb(0,0,0)" stroke="none" font-family="geogebra-sans-serif, sans-serif" font-size="12px" font-style="normal" font-weight="normal" text-decoration="normal" x="122" y="707" text-anchor="start" dominant-baseline="alphabetic" fill-opacity="1">–4</text><text fill="none" stroke="rgb(255,255,255)" font-family="geogebra-sans-serif, sans-serif" font-size="12px" font-style="normal" font-weight="normal" text-decoration="normal" x="122" y="617" text-anchor="start" dominant-baseline="alphabetic" stroke-opacity="1" stroke-miterlimit="10" stroke-width="4">–2</text><text fill="rgb(0,0,0)" stroke="none" font-family="geogebra-sans-serif, sans-serif" font-size="12px" font-style="normal" font-weight="normal" text-decoration="normal" x="122" y="617" text-anchor="start" dominant-baseline="alphabetic" fill-opacity="1">–2</text><text fill="none" stroke="rgb(255,255,255)" font-family="geogebra-sans-serif, sans-serif" font-size="12px" font-style="normal" font-weight="normal" text-decoration="normal" x="131" y="438" text-anchor="start" dominant-baseline="alphabetic" stroke-opacity="1" stroke-miterlimit="10" stroke-width="4">2</text><text fill="rgb(0,0,0)" stroke="none" font-family="geogebra-sans-serif, sans-serif" font-size="12px" font-style="normal" font-weight="normal" text-decoration="normal" x="131" y="438" text-anchor="start" dominant-baseline="alphabetic" fill-opacity="1">2</text><text fill="none" stroke="rgb(255,255,255)" font-family="geogebra-sans-serif, sans-serif" font-size="12px" font-style="normal" font-weight="normal" text-decoration="normal" x="131" y="348" text-anchor="start" dominant-baseline="alphabetic" stroke-opacity="1" stroke-miterlimit="10" stroke-width="4">4</text><text fill="rgb(0,0,0)" stroke="none" font-family="geogebra-sans-serif, sans-serif" font-size="12px" font-style="normal" font-weight="normal" text-decoration="normal" x="131" y="348" text-anchor="start" dominant-baseline="alphabetic" fill-opacity="1">4</text><text fill="none" stroke="rgb(255,255,255)" font-family="geogebra-sans-serif, sans-serif" font-size="12px" font-style="normal" font-weight="normal" text-decoration="normal" x="131" y="258" text-anchor="start" dominant-baseline="alphabetic" stroke-opacity="1" stroke-miterlimit="10" stroke-width="4">6</text><text fill="rgb(0,0,0)" stroke="none" font-family="geogebra-sans-serif, sans-serif" font-size="12px" font-style="normal" font-weight="normal" text-decoration="normal" x="131" y="258" text-anchor="start" dominant-baseline="alphabetic" fill-opacity="1">6</text><text fill="none" stroke="rgb(255,255,255)" font-family="geogebra-sans-serif, sans-serif" font-size="12px" font-style="normal" font-weight="normal" text-decoration="normal" x="131" y="169" text-anchor="start" dominant-baseline="alphabetic" stroke-opacity="1" stroke-miterlimit="10" stroke-width="4">8</text><text fill="rgb(0,0,0)" stroke="none" font-family="geogebra-sans-serif, sans-serif" font-size="12px" font-style="normal" font-weight="normal" text-decoration="normal" x="131" y="169" text-anchor="start" dominant-baseline="alphabetic" fill-opacity="1">8</text><text fill="none" stroke="rgb(255,255,255)" font-family="geogebra-sans-serif, sans-serif" font-size="12px" font-style="normal" font-weight="normal" text-decoration="normal" x="124" y="79" text-anchor="start" dominant-baseline="alphabetic" stroke-opacity="1" stroke-miterlimit="10" stroke-width="4">10</text><text fill="rgb(0,0,0)" stroke="none" font-family="geogebra-sans-serif, sans-serif" font-size="12px" font-style="normal" font-weight="normal" text-decoration="normal" x="124" y="79" text-anchor="start" dominant-baseline="alphabetic" fill-opacity="1">10</text><text fill="none" stroke="rgb(255,255,255)" font-family="geogebra-sans-serif, sans-serif" font-size="12px" font-style="normal" font-weight="normal" text-decoration="normal" x="131" y="538" text-anchor="start" dominant-baseline="alphabetic" stroke-opacity="1" stroke-miterlimit="10" stroke-width="4">0</text><text fill="rgb(0,0,0)" stroke="none" font-family="geogebra-sans-serif, sans-serif" font-size="12px" font-style="normal" font-weight="normal" text-decoration="normal" x="131" y="538" text-anchor="start" dominant-baseline="alphabetic" fill-opacity="1">0</text><path fill="none" stroke="rgb(102,102,102)" paint-order="fill stroke markers" d=" M 144.03782891600244 388.36991889730587 L 145.5 389.4635410993202 M 145.5 389.4635410993202 L 150.046875 392.82459951660474 L 154.59375 396.1217389245778 L 159.140625 399.3496480418481 L 163.6875 402.5024103769717 L 168.234375 405.57341549766033 L 172.78125 408.55525421766765 L 177.328125 411.43959419470974 L 181.875 414.21703153085684 L 186.421875 416.8769127952658 L 190.96875 419.40712035526184 L 195.515625 421.79381187671095 L 200.0625 424.02110215711934 L 204.609375 426.0706718273459 L 209.15625 427.92128252974464 L 213.703125 429.54817141240886 L 218.25 430.92228837453234 L 222.796875 432.00932626393416 L 227.34375 432.7684753500089 L 231.890625 433.1508060663954 L 236.43749999999997 433.09714381368116 L 240.98437499999997 432.535239421661 L 245.53124999999997 431.3759470073983 L 250.07812499999997 429.50797776179934 L 254.62499999999997 426.790569661805 L 259.171875 423.0430387344019 L 263.71875 418.0295459994368 L 268.26562499999994 411.4363131532786 L 272.8125 402.8365265343521 L 275.0859375 397.60677142552333 L 277.359375 391.6343996401022 L 279.6328125 384.80342229476537 L 281.90625 376.9723688667795 L 284.1796875 367.9668829453548 L 285.31640625 362.95782720853003 L 286.453125 357.56957692828837 L 287.58984375 351.76592049694125 L 288.7265625 345.50588395400973 L 289.86328125 338.74292147223593 L 291 331.4239349091281 M 291 331.4239349091281 L 292.13671875 323.48807877836214 L 293.2734375 314.8652937768617 L 294.41015625 305.47449410389135 L 294.978515625 300.4621898305496 L 295.546875 295.2213093107675 L 296.115234375 289.7375156863659 L 296.68359375 283.99524750585107 L 297.251953125 277.9775851220501 L 297.8203125 271.666099208462 L 298.388671875 265.04067853851814 L 298.95703125 258.07933363853783 L 299.525390625 250.75797227695745 L 300.09375 243.05014196135255 L 300.662109375 234.92673364493402 L 301.23046875 226.35563964960284 L 301.798828125 217.30135733381246 L 302.3671875 207.72452819331306 L 302.6513671875 202.72667409790068 L 302.935546875 197.58139978040208 L 303.2197265625 192.2824462053061 L 303.50390625 186.82319492995356 L 303.7880859375 181.19664193140483 L 304.072265625 175.39536911229078 L 304.3564453125 169.41151324191924 L 304.640625 163.23673205920124 L 304.9248046875 156.86216723014655 L 305.208984375 150.27840381405014 L 305.4931640625 143.47542584834304 L 305.77734375 136.4425676114675 L 306.0615234375 129.16846006503465 L 306.345703125 121.64097190963696 L 306.6298828125 113.8471446115409 L 306.9140625 105.77312066832394 L 307.1982421875 97.40406427815151 L 307.482421875 88.72407345734496 L 307.7666015625 79.71608251106511 L 308.05078125 70.36175359864518 L 308.3349609375 60.64135594394486 L 308.47705078125 55.637301729892386 L 308.619140625 50.533631016589766 L 308.76123046875 45.32742304470378 L 308.9033203125 40.01564174558246 L 309.04541015625 34.59512999413431 L 309.1875 29.06260351450794 L 309.32958984375 23.414644413862163 L 309.4716796875 17.647694317481808 L 309.61376953125 11.758047076247692 L 309.755859375 5.741841015080013 L 309.89794921875 -0.4049493117320253 L 310.0400390625 -6.68652189529746 M 323.2999076843262 702.0780867021365 L 323.30101776123047 702.0769766252323 L 323.96484375 701.4131506364628 L 325.1015625 700.2764318864627 L 327.375 698.0029943864627 L 331.921875 693.4561193864627 L 336.46875 688.9092443864628 L 341.015625 684.3623693864628 L 345.5625 679.8154943864628 L 350.109375 675.2686193864628 L 354.65625 670.7217443864628 L 359.203125 666.1748693864628 L 363.75 661.6279943864628 M 363.75 661.6279943864628 L 368.296875 657.0811193864628 L 372.84375 652.5342443864628 L 377.390625 647.9873693864628 L 381.9375 643.4404943864628 L 386.484375 638.8936193864628 L 391.03125 634.3467443864628 L 395.578125 629.7998693864628 L 400.125 625.2529943864628 M 400.125 625.2529943864628 L 404.671875 620.7061193864628 L 409.21875 616.1592443864628 M 409.21875 616.1592443864628 L 412.9306911517032 612.4473032347596" stroke-opacity="0.6980392156862745" stroke-linecap="round" stroke-linejoin="round" stroke-miterlimit="10" stroke-width="2.5"/><text fill="rgb(102,102,102)" stroke="none" font-family="geogebra-sans-serif, sans-serif" font-size="16px" font-style="normal" font-weight="normal" text-decoration="normal" x="188" y="402" text-anchor="start" dominant-baseline="alphabetic" fill-opacity="1">f</text><path fill="none" stroke="rgb(96,96,96)" paint-order="fill stroke markers" d=" M 233.66878314395427 753 L 233.66878314395427 -5" stroke-opacity="0.6980392156862745" stroke-linejoin="round" stroke-miterlimit="10" stroke-dasharray="9,8"/><text fill="rgb(96,96,96)" stroke="none" font-family="geogebra-sans-serif, sans-serif" font-size="16px" font-style="normal" font-weight="normal" text-decoration="normal" x="265" y="28" text-anchor="start" dominant-baseline="alphabetic" fill-opacity="1">I</text><text fill="rgb(96,96,96)" stroke="none" font-family="geogebra-sans-serif, sans-serif" font-size="14px" font-style="normal" font-weight="normal" text-decoration="normal" x="269" y="35" text-anchor="start" dominant-baseline="alphabetic" fill-opacity="1">2</text><path fill="none" stroke="rgb(96,96,96)" paint-order="fill stroke markers" d=" M 323.2997369237513 753 L 323.2997369237513 -5" stroke-opacity="0.6980392156862745" stroke-linejoin="round" stroke-miterlimit="10" stroke-width="1.5" stroke-dasharray="9.5,8"/><text fill="rgb(96,96,96)" stroke="none" font-family="geogebra-sans-serif, sans-serif" font-size="16px" font-style="normal" font-weight="normal" text-decoration="normal" x="357" y="27" text-anchor="start" dominant-baseline="alphabetic" fill-opacity="1">I</text><text fill="rgb(96,96,96)" stroke="none" font-family="geogebra-sans-serif, sans-serif" font-size="14px" font-style="normal" font-weight="normal" text-decoration="normal" x="361" y="34" text-anchor="start" dominant-baseline="alphabetic" fill-opacity="1">3</text><path fill="none" stroke="rgb(96,96,96)" paint-order="fill stroke markers" d=" M -5 702.0782574627113 L 1169 702.0782574627113" stroke-opacity="0.6980392156862745" stroke-linejoin="round" stroke-miterlimit="10" stroke-width="1.5" stroke-dasharray="9.5,8"/><path fill="none" stroke="rgb(96,96,96)" paint-order="fill stroke markers" d=" M 144.0378293641572 753 L 144.0378293641572 -5" stroke-opacity="0.6980392156862745" stroke-linejoin="round" stroke-miterlimit="10" stroke-width="0.5" stroke-dasharray="8.5,8"/><text fill="rgb(96,96,96)" stroke="none" font-family="geogebra-sans-serif, sans-serif" font-size="16px" font-style="normal" font-weight="normal" text-decoration="normal" x="183" y="29" text-anchor="start" dominant-baseline="alphabetic" fill-opacity="1">I </text><text fill="rgb(96,96,96)" stroke="none" font-family="geogebra-sans-serif, sans-serif" font-size="14px" font-style="normal" font-weight="normal" text-decoration="normal" x="191" y="36" text-anchor="start" dominant-baseline="alphabetic" fill-opacity="1">1</text><path fill="rgb(153,51,255)" stroke="none" paint-order="stroke fill markers" d=" M 144.0378293641572 0 L 144.0378293641572 702.0782574627113 L 412.9306907035484 702.0782574627113 L 412.9306907035484 0 Z" fill-opacity="0.24705882352941178"/><path fill="rgb(128,0,128)" stroke="none" paint-order="stroke fill markers" d=" M 238.66878314395427 433.1853961233204 C 238.66878314395427 435.94681987247435 236.43020689310825 438.1853961233204 233.66878314395427 438.1853961233204 C 230.9073593948003 438.1853961233204 228.66878314395427 435.94681987247435 228.66878314395427 433.1853961233204 C 228.66878314395427 430.42397237416645 230.9073593948003 428.1853961233204 233.66878314395427 428.1853961233204 C 236.43020689310825 428.1853961233204 238.66878314395427 430.42397237416645 238.66878314395427 433.1853961233204 Z" fill-opacity="1"/><path fill="none" stroke="rgb(0,0,0)" paint-order="fill stroke markers" d=" M 238.66878314395427 433.1853961233204 C 238.66878314395427 435.94681987247435 236.43020689310825 438.1853961233204 233.66878314395427 438.1853961233204 C 230.9073593948003 438.1853961233204 228.66878314395427 435.94681987247435 228.66878314395427 433.1853961233204 C 228.66878314395427 430.42397237416645 230.9073593948003 428.1853961233204 233.66878314395427 428.1853961233204 C 236.43020689310825 428.1853961233204 238.66878314395427 430.42397237416645 238.66878314395427 433.1853961233204 Z" stroke-opacity="1" stroke-linecap="round" stroke-linejoin="round" stroke-miterlimit="10"/><text fill="rgb(128,0,128)" stroke="none" font-family="geogebra-sans-serif, sans-serif" font-size="16px" font-style="normal" font-weight="normal" text-decoration="normal" x="203" y="460" text-anchor="start" dominant-baseline="alphabetic" fill-opacity="1">E</text><text fill="rgb(128,0,128)" stroke="none" font-family="geogebra-sans-serif, sans-serif" font-size="14px" font-style="normal" font-weight="normal" text-decoration="normal" x="212" y="467" text-anchor="start" dominant-baseline="alphabetic" fill-opacity="1">1</text><text fill="rgb(128,0,128)" stroke="none" font-family="geogebra-sans-serif, sans-serif" font-size="16px" font-style="normal" font-weight="normal" text-decoration="normal" x="219" y="460" text-anchor="start" dominant-baseline="alphabetic" fill-opacity="1"> = (2, 2)</text><path fill="rgb(128,0,128)" stroke="none" paint-order="stroke fill markers" d=" M 327.2997369237513 702.0782574627113 C 327.2997369237513 704.2873964620345 325.50887592307447 706.0782574627113 323.2997369237513 706.0782574627113 C 321.09059792442815 706.0782574627113 319.2997369237513 704.2873964620345 319.2997369237513 702.0782574627113 C 319.2997369237513 699.8691184633882 321.09059792442815 698.0782574627113 323.2997369237513 698.0782574627113 C 325.50887592307447 698.0782574627113 327.2997369237513 699.8691184633882 327.2997369237513 702.0782574627113 Z" fill-opacity="1"/><path fill="none" stroke="rgb(0,0,0)" paint-order="fill stroke markers" d=" M 327.2997369237513 702.0782574627113 C 327.2997369237513 704.2873964620345 325.50887592307447 706.0782574627113 323.2997369237513 706.0782574627113 C 321.09059792442815 706.0782574627113 319.2997369237513 704.2873964620345 319.2997369237513 702.0782574627113 C 319.2997369237513 699.8691184633882 321.09059792442815 698.0782574627113 323.2997369237513 698.0782574627113 C 325.50887592307447 698.0782574627113 327.2997369237513 699.8691184633882 327.2997369237513 702.0782574627113 Z" stroke-opacity="1" stroke-linecap="round" stroke-linejoin="round" stroke-miterlimit="10"/><text fill="rgb(128,0,128)" stroke="none" font-family="geogebra-sans-serif, sans-serif" font-size="16px" font-style="normal" font-weight="normal" text-decoration="normal" x="291" y="731" text-anchor="start" dominant-baseline="alphabetic" fill-opacity="1">E</text><text fill="rgb(128,0,128)" stroke="none" font-family="geogebra-sans-serif, sans-serif" font-size="14px" font-style="normal" font-weight="normal" text-decoration="normal" x="300" y="738" text-anchor="start" dominant-baseline="alphabetic" fill-opacity="1">2</text><text fill="rgb(128,0,128)" stroke="none" font-family="geogebra-sans-serif, sans-serif" font-size="16px" font-style="normal" font-weight="normal" text-decoration="normal" x="307" y="731" text-anchor="start" dominant-baseline="alphabetic" fill-opacity="1"> = (4, -4)</text></g></g></svg>