<svg version="1.1" xmlns="http://www.w3.org/2000/svg" xmlns:xlink="http://www.w3.org/1999/xlink" width="1150" height="712"><defs><clipPath id="iFqFFTyZhXFB"><path fill="none" stroke="none" d=" M 0 0 L 1150 0 L 1150 712 L 0 712 L 0 0 Z"/></clipPath></defs><g transform="scale(1,1)" clip-path="url(#iFqFFTyZhXFB)"><g><rect fill="rgb(255,255,255)" stroke="none" x="0" y="0" width="1150" height="712" fill-opacity="1"/><path fill="none" stroke="rgb(192,192,192)" paint-order="fill stroke markers" d=" M 54.5 0.5 L 54.5 712.5 M 54.5 0.5 L 54.5 712.5 M 233.5 0.5 L 233.5 712.5 M 323.5 0.5 L 323.5 712.5 M 412.5 0.5 L 412.5 712.5 M 502.5 0.5 L 502.5 712.5 M 592.5 0.5 L 592.5 712.5 M 681.5 0.5 L 681.5 712.5 M 771.5 0.5 L 771.5 712.5 M 861.5 0.5 L 861.5 712.5 M 950.5 0.5 L 950.5 712.5 M 1040.5 0.5 L 1040.5 712.5 M 1129.5 0.5 L 1129.5 712.5" stroke-opacity="1" stroke-linecap="round" stroke-linejoin="round" stroke-miterlimit="10"/><path fill="none" stroke="rgb(192,192,192)" paint-order="fill stroke markers" d=" M 0.5 0.5 L 0.5 712.5 M 18.5 0.5 L 18.5 712.5 M 36.5 0.5 L 36.5 712.5 M 72.5 0.5 L 72.5 712.5 M 90.5 0.5 L 90.5 712.5 M 108.5 0.5 L 108.5 712.5 M 126.5 0.5 L 126.5 712.5 M 161.5 0.5 L 161.5 712.5 M 179.5 0.5 L 179.5 712.5 M 197.5 0.5 L 197.5 712.5 M 215.5 0.5 L 215.5 712.5 M 251.5 0.5 L 251.5 712.5 M 269.5 0.5 L 269.5 712.5 M 287.5 0.5 L 287.5 712.5 M 305.5 0.5 L 305.5 712.5 M 341.5 0.5 L 341.5 712.5 M 359.5 0.5 L 359.5 712.5 M 377.5 0.5 L 377.5 712.5 M 395.5 0.5 L 395.5 712.5 M 430.5 0.5 L 430.5 712.5 M 448.5 0.5 L 448.5 712.5 M 466.5 0.5 L 466.5 712.5 M 484.5 0.5 L 484.5 712.5 M 520.5 0.5 L 520.5 712.5 M 538.5 0.5 L 538.5 712.5 M 556.5 0.5 L 556.5 712.5 M 574.5 0.5 L 574.5 712.5 M 610.5 0.5 L 610.5 712.5 M 628.5 0.5 L 628.5 712.5 M 645.5 0.5 L 645.5 712.5 M 663.5 0.5 L 663.5 712.5 M 699.5 0.5 L 699.5 712.5 M 717.5 0.5 L 717.5 712.5 M 735.5 0.5 L 735.5 712.5 M 753.5 0.5 L 753.5 712.5 M 789.5 0.5 L 789.5 712.5 M 807.5 0.5 L 807.5 712.5 M 825.5 0.5 L 825.5 712.5 M 843.5 0.5 L 843.5 712.5 M 879.5 0.5 L 879.5 712.5 M 896.5 0.5 L 896.5 712.5 M 914.5 0.5 L 914.5 712.5 M 932.5 0.5 L 932.5 712.5 M 968.5 0.5 L 968.5 712.5 M 986.5 0.5 L 986.5 712.5 M 1004.5 0.5 L 1004.5 712.5 M 1022.5 0.5 L 1022.5 712.5 M 1058.5 0.5 L 1058.5 712.5 M 1076.5 0.5 L 1076.5 712.5 M 1094.5 0.5 L 1094.5 712.5 M 1112.5 0.5 L 1112.5 712.5 M 1147.5 0.5 L 1147.5 712.5" stroke-opacity="0.23529411764705882" stroke-linecap="round" stroke-linejoin="round" stroke-miterlimit="10"/><path fill="none" stroke="rgb(192,192,192)" paint-order="fill stroke markers" d=" M 0.5 74.5 L 1150.5 74.5 M 0.5 74.5 L 1150.5 74.5 M 0.5 164.5 L 1150.5 164.5 M 0.5 253.5 L 1150.5 253.5 M 0.5 343.5 L 1150.5 343.5 M 0.5 433.5 L 1150.5 433.5 M 0.5 612.5 L 1150.5 612.5 M 0.5 702.5 L 1150.5 702.5" stroke-opacity="1" stroke-linecap="round" stroke-linejoin="round" stroke-miterlimit="10"/><path fill="none" stroke="rgb(192,192,192)" paint-order="fill stroke markers" d=" M 0.5 2.5 L 1150.5 2.5 M 0.5 20.5 L 1150.5 20.5 M 0.5 38.5 L 1150.5 38.5 M 0.5 56.5 L 1150.5 56.5 M 0.5 92.5 L 1150.5 92.5 M 0.5 110.5 L 1150.5 110.5 M 0.5 128.5 L 1150.5 128.5 M 0.5 146.5 L 1150.5 146.5 M 0.5 182.5 L 1150.5 182.5 M 0.5 200.5 L 1150.5 200.5 M 0.5 218.5 L 1150.5 218.5 M 0.5 235.5 L 1150.5 235.5 M 0.5 271.5 L 1150.5 271.5 M 0.5 289.5 L 1150.5 289.5 M 0.5 307.5 L 1150.5 307.5 M 0.5 325.5 L 1150.5 325.5 M 0.5 361.5 L 1150.5 361.5 M 0.5 379.5 L 1150.5 379.5 M 0.5 397.5 L 1150.5 397.5 M 0.5 415.5 L 1150.5 415.5 M 0.5 451.5 L 1150.5 451.5 M 0.5 469.5 L 1150.5 469.5 M 0.5 486.5 L 1150.5 486.5 M 0.5 504.5 L 1150.5 504.5 M 0.5 540.5 L 1150.5 540.5 M 0.5 558.5 L 1150.5 558.5 M 0.5 576.5 L 1150.5 576.5 M 0.5 594.5 L 1150.5 594.5 M 0.5 630.5 L 1150.5 630.5 M 0.5 648.5 L 1150.5 648.5 M 0.5 666.5 L 1150.5 666.5 M 0.5 684.5 L 1150.5 684.5" stroke-opacity="0.23529411764705882" stroke-linecap="round" stroke-linejoin="round" stroke-miterlimit="10"/><path fill="none" stroke="rgb(0,0,0)" paint-order="fill stroke markers" d=" M 144.5 2.5 L 144.5 712.5" stroke-opacity="1" stroke-miterlimit="10"/><path fill="none" stroke="rgb(0,0,0)" paint-order="fill stroke markers" d=" M 144.5 1.5 L 140.5 5.5" stroke-opacity="1" stroke-miterlimit="10"/><path fill="none" stroke="rgb(0,0,0)" paint-order="fill stroke markers" d=" M 144.5 1.5 L 148.5 5.5" stroke-opacity="1" stroke-miterlimit="10"/><path fill="none" stroke="rgb(0,0,0)" paint-order="fill stroke markers" d=" M 0.5 522.5 L 1148.5 522.5" stroke-opacity="1" stroke-miterlimit="10"/><path fill="none" stroke="rgb(0,0,0)" paint-order="fill stroke markers" d=" M 1149.5 522.5 L 1145.5 518.5" stroke-opacity="1" stroke-miterlimit="10"/><path fill="none" stroke="rgb(0,0,0)" paint-order="fill stroke markers" d=" M 1149.5 522.5 L 1145.5 526.5" stroke-opacity="1" stroke-miterlimit="10"/><text fill="none" stroke="rgb(255,255,255)" font-family="geogebra-sans-serif, sans-serif" font-size="12px" font-style="normal" font-weight="normal" text-decoration="normal" x="49" y="538" text-anchor="start" dominant-baseline="alphabetic" stroke-opacity="1" stroke-miterlimit="10" stroke-width="4">–2</text><text fill="rgb(0,0,0)" stroke="none" font-family="geogebra-sans-serif, sans-serif" font-size="12px" font-style="normal" font-weight="normal" text-decoration="normal" x="49" y="538" text-anchor="start" dominant-baseline="alphabetic" fill-opacity="1">–2</text><text fill="none" stroke="rgb(255,255,255)" font-family="geogebra-sans-serif, sans-serif" font-size="12px" font-style="normal" font-weight="normal" text-decoration="normal" x="231" y="538" text-anchor="start" dominant-baseline="alphabetic" stroke-opacity="1" stroke-miterlimit="10" stroke-width="4">2</text><text fill="rgb(0,0,0)" stroke="none" font-family="geogebra-sans-serif, sans-serif" font-size="12px" font-style="normal" font-weight="normal" text-decoration="normal" x="231" y="538" text-anchor="start" dominant-baseline="alphabetic" fill-opacity="1">2</text><text fill="none" stroke="rgb(255,255,255)" font-family="geogebra-sans-serif, sans-serif" font-size="12px" font-style="normal" font-weight="normal" text-decoration="normal" x="321" y="538" text-anchor="start" dominant-baseline="alphabetic" stroke-opacity="1" stroke-miterlimit="10" stroke-width="4">4</text><text fill="rgb(0,0,0)" stroke="none" font-family="geogebra-sans-serif, sans-serif" font-size="12px" font-style="normal" font-weight="normal" text-decoration="normal" x="321" y="538" text-anchor="start" dominant-baseline="alphabetic" fill-opacity="1">4</text><text fill="none" stroke="rgb(255,255,255)" font-family="geogebra-sans-serif, sans-serif" font-size="12px" font-style="normal" font-weight="normal" text-decoration="normal" x="410" y="538" text-anchor="start" dominant-baseline="alphabetic" stroke-opacity="1" stroke-miterlimit="10" stroke-width="4">6</text><text fill="rgb(0,0,0)" stroke="none" font-family="geogebra-sans-serif, sans-serif" font-size="12px" font-style="normal" font-weight="normal" text-decoration="normal" x="410" y="538" text-anchor="start" dominant-baseline="alphabetic" fill-opacity="1">6</text><text fill="none" stroke="rgb(255,255,255)" font-family="geogebra-sans-serif, sans-serif" font-size="12px" font-style="normal" font-weight="normal" text-decoration="normal" x="500" y="538" text-anchor="start" dominant-baseline="alphabetic" stroke-opacity="1" stroke-miterlimit="10" stroke-width="4">8</text><text fill="rgb(0,0,0)" stroke="none" font-family="geogebra-sans-serif, sans-serif" font-size="12px" font-style="normal" font-weight="normal" text-decoration="normal" x="500" y="538" text-anchor="start" dominant-baseline="alphabetic" fill-opacity="1">8</text><text fill="none" stroke="rgb(255,255,255)" font-family="geogebra-sans-serif, sans-serif" font-size="12px" font-style="normal" font-weight="normal" text-decoration="normal" x="587" y="538" text-anchor="start" dominant-baseline="alphabetic" stroke-opacity="1" stroke-miterlimit="10" stroke-width="4">10</text><text fill="rgb(0,0,0)" stroke="none" font-family="geogebra-sans-serif, sans-serif" font-size="12px" font-style="normal" font-weight="normal" text-decoration="normal" x="587" y="538" text-anchor="start" dominant-baseline="alphabetic" fill-opacity="1">10</text><text fill="none" stroke="rgb(255,255,255)" font-family="geogebra-sans-serif, sans-serif" font-size="12px" font-style="normal" font-weight="normal" text-decoration="normal" x="676" y="538" text-anchor="start" dominant-baseline="alphabetic" stroke-opacity="1" stroke-miterlimit="10" stroke-width="4">12</text><text fill="rgb(0,0,0)" stroke="none" font-family="geogebra-sans-serif, sans-serif" font-size="12px" font-style="normal" font-weight="normal" text-decoration="normal" x="676" y="538" text-anchor="start" dominant-baseline="alphabetic" fill-opacity="1">12</text><text fill="none" stroke="rgb(255,255,255)" font-family="geogebra-sans-serif, sans-serif" font-size="12px" font-style="normal" font-weight="normal" text-decoration="normal" x="766" y="538" text-anchor="start" dominant-baseline="alphabetic" stroke-opacity="1" stroke-miterlimit="10" stroke-width="4">14</text><text fill="rgb(0,0,0)" stroke="none" font-family="geogebra-sans-serif, sans-serif" font-size="12px" font-style="normal" font-weight="normal" text-decoration="normal" x="766" y="538" text-anchor="start" dominant-baseline="alphabetic" fill-opacity="1">14</text><text fill="none" stroke="rgb(255,255,255)" font-family="geogebra-sans-serif, sans-serif" font-size="12px" font-style="normal" font-weight="normal" text-decoration="normal" x="856" y="538" text-anchor="start" dominant-baseline="alphabetic" stroke-opacity="1" stroke-miterlimit="10" stroke-width="4">16</text><text fill="rgb(0,0,0)" stroke="none" font-family="geogebra-sans-serif, sans-serif" font-size="12px" font-style="normal" font-weight="normal" text-decoration="normal" x="856" y="538" text-anchor="start" dominant-baseline="alphabetic" fill-opacity="1">16</text><text fill="none" stroke="rgb(255,255,255)" font-family="geogebra-sans-serif, sans-serif" font-size="12px" font-style="normal" font-weight="normal" text-decoration="normal" x="945" y="538" text-anchor="start" dominant-baseline="alphabetic" stroke-opacity="1" stroke-miterlimit="10" stroke-width="4">18</text><text fill="rgb(0,0,0)" stroke="none" font-family="geogebra-sans-serif, sans-serif" font-size="12px" font-style="normal" font-weight="normal" text-decoration="normal" x="945" y="538" text-anchor="start" dominant-baseline="alphabetic" fill-opacity="1">18</text><text fill="none" stroke="rgb(255,255,255)" font-family="geogebra-sans-serif, sans-serif" font-size="12px" font-style="normal" font-weight="normal" text-decoration="normal" x="1035" y="538" text-anchor="start" dominant-baseline="alphabetic" stroke-opacity="1" stroke-miterlimit="10" stroke-width="4">20</text><text fill="rgb(0,0,0)" stroke="none" font-family="geogebra-sans-serif, sans-serif" font-size="12px" font-style="normal" font-weight="normal" text-decoration="normal" x="1035" y="538" text-anchor="start" dominant-baseline="alphabetic" fill-opacity="1">20</text><text fill="none" stroke="rgb(255,255,255)" font-family="geogebra-sans-serif, sans-serif" font-size="12px" font-style="normal" font-weight="normal" text-decoration="normal" x="1124" y="538" text-anchor="start" dominant-baseline="alphabetic" stroke-opacity="1" stroke-miterlimit="10" stroke-width="4">22</text><text fill="rgb(0,0,0)" stroke="none" font-family="geogebra-sans-serif, sans-serif" font-size="12px" font-style="normal" font-weight="normal" text-decoration="normal" x="1124" y="538" text-anchor="start" dominant-baseline="alphabetic" fill-opacity="1">22</text><text fill="none" stroke="rgb(255,255,255)" font-family="geogebra-sans-serif, sans-serif" font-size="12px" font-style="normal" font-weight="normal" text-decoration="normal" x="122" y="617" text-anchor="start" dominant-baseline="alphabetic" stroke-opacity="1" stroke-miterlimit="10" stroke-width="4">–2</text><text fill="rgb(0,0,0)" stroke="none" font-family="geogebra-sans-serif, sans-serif" font-size="12px" font-style="normal" font-weight="normal" text-decoration="normal" x="122" y="617" text-anchor="start" dominant-baseline="alphabetic" fill-opacity="1">–2</text><text fill="none" stroke="rgb(255,255,255)" font-family="geogebra-sans-serif, sans-serif" font-size="12px" font-style="normal" font-weight="normal" text-decoration="normal" x="131" y="438" text-anchor="start" dominant-baseline="alphabetic" stroke-opacity="1" stroke-miterlimit="10" stroke-width="4">2</text><text fill="rgb(0,0,0)" stroke="none" font-family="geogebra-sans-serif, sans-serif" font-size="12px" font-style="normal" font-weight="normal" text-decoration="normal" x="131" y="438" text-anchor="start" dominant-baseline="alphabetic" fill-opacity="1">2</text><text fill="none" stroke="rgb(255,255,255)" font-family="geogebra-sans-serif, sans-serif" font-size="12px" font-style="normal" font-weight="normal" text-decoration="normal" x="131" y="348" text-anchor="start" dominant-baseline="alphabetic" stroke-opacity="1" stroke-miterlimit="10" stroke-width="4">4</text><text fill="rgb(0,0,0)" stroke="none" font-family="geogebra-sans-serif, sans-serif" font-size="12px" font-style="normal" font-weight="normal" text-decoration="normal" x="131" y="348" text-anchor="start" dominant-baseline="alphabetic" fill-opacity="1">4</text><text fill="none" stroke="rgb(255,255,255)" font-family="geogebra-sans-serif, sans-serif" font-size="12px" font-style="normal" font-weight="normal" text-decoration="normal" x="131" y="258" text-anchor="start" dominant-baseline="alphabetic" stroke-opacity="1" stroke-miterlimit="10" stroke-width="4">6</text><text fill="rgb(0,0,0)" stroke="none" font-family="geogebra-sans-serif, sans-serif" font-size="12px" font-style="normal" font-weight="normal" text-decoration="normal" x="131" y="258" text-anchor="start" dominant-baseline="alphabetic" fill-opacity="1">6</text><text fill="none" stroke="rgb(255,255,255)" font-family="geogebra-sans-serif, sans-serif" font-size="12px" font-style="normal" font-weight="normal" text-decoration="normal" x="131" y="169" text-anchor="start" dominant-baseline="alphabetic" stroke-opacity="1" stroke-miterlimit="10" stroke-width="4">8</text><text fill="rgb(0,0,0)" stroke="none" font-family="geogebra-sans-serif, sans-serif" font-size="12px" font-style="normal" font-weight="normal" text-decoration="normal" x="131" y="169" text-anchor="start" dominant-baseline="alphabetic" fill-opacity="1">8</text><text fill="none" stroke="rgb(255,255,255)" font-family="geogebra-sans-serif, sans-serif" font-size="12px" font-style="normal" font-weight="normal" text-decoration="normal" x="124" y="79" text-anchor="start" dominant-baseline="alphabetic" stroke-opacity="1" stroke-miterlimit="10" stroke-width="4">10</text><text fill="rgb(0,0,0)" stroke="none" font-family="geogebra-sans-serif, sans-serif" font-size="12px" font-style="normal" font-weight="normal" text-decoration="normal" x="124" y="79" text-anchor="start" dominant-baseline="alphabetic" fill-opacity="1">10</text><text fill="none" stroke="rgb(255,255,255)" font-family="geogebra-sans-serif, sans-serif" font-size="12px" font-style="normal" font-weight="normal" text-decoration="normal" x="131" y="538" text-anchor="start" dominant-baseline="alphabetic" stroke-opacity="1" stroke-miterlimit="10" stroke-width="4">0</text><text fill="rgb(0,0,0)" stroke="none" font-family="geogebra-sans-serif, sans-serif" font-size="12px" font-style="normal" font-weight="normal" text-decoration="normal" x="131" y="538" text-anchor="start" dominant-baseline="alphabetic" fill-opacity="1">0</text><path fill="none" stroke="rgb(96,96,96)" paint-order="fill stroke markers" d=" M 233.66878314395439 717 L 233.66878314395439 -5" stroke-opacity="0.6980392156862745" stroke-linejoin="round" stroke-miterlimit="10" stroke-dasharray="9,8"/><text fill="rgb(96,96,96)" stroke="none" font-family="geogebra-sans-serif, sans-serif" font-size="16px" font-style="normal" font-weight="normal" text-decoration="normal" x="265" y="28" text-anchor="start" dominant-baseline="alphabetic" fill-opacity="1">I</text><text fill="rgb(96,96,96)" stroke="none" font-family="geogebra-sans-serif, sans-serif" font-size="14px" font-style="normal" font-weight="normal" text-decoration="normal" x="269" y="35" text-anchor="start" dominant-baseline="alphabetic" fill-opacity="1">2</text><path fill="none" stroke="rgb(96,96,96)" paint-order="fill stroke markers" d=" M 323.2997369237514 717 L 323.2997369237514 -5" stroke-opacity="0.6980392156862745" stroke-linejoin="round" stroke-miterlimit="10" stroke-width="1.5" stroke-dasharray="9.5,8"/><text fill="rgb(96,96,96)" stroke="none" font-family="geogebra-sans-serif, sans-serif" font-size="16px" font-style="normal" font-weight="normal" text-decoration="normal" x="357" y="27" text-anchor="start" dominant-baseline="alphabetic" fill-opacity="1">I</text><text fill="rgb(96,96,96)" stroke="none" font-family="geogebra-sans-serif, sans-serif" font-size="14px" font-style="normal" font-weight="normal" text-decoration="normal" x="361" y="34" text-anchor="start" dominant-baseline="alphabetic" fill-opacity="1">3</text><path fill="none" stroke="rgb(96,96,96)" paint-order="fill stroke markers" d=" M -5 702.0782574627115 L 1155 702.0782574627115" stroke-opacity="0.6980392156862745" stroke-linejoin="round" stroke-miterlimit="10" stroke-width="1.5" stroke-dasharray="9.5,8"/><path fill="none" stroke="rgb(96,96,96)" paint-order="fill stroke markers" d=" M 144.0378293641573 717 L 144.0378293641573 -5" stroke-opacity="0.6980392156862745" stroke-linejoin="round" stroke-miterlimit="10" stroke-width="0.5" stroke-dasharray="8.5,8"/><text fill="rgb(96,96,96)" stroke="none" font-family="geogebra-sans-serif, sans-serif" font-size="16px" font-style="normal" font-weight="normal" text-decoration="normal" x="183" y="29" text-anchor="start" dominant-baseline="alphabetic" fill-opacity="1">I </text><text fill="rgb(96,96,96)" stroke="none" font-family="geogebra-sans-serif, sans-serif" font-size="14px" font-style="normal" font-weight="normal" text-decoration="normal" x="191" y="36" text-anchor="start" dominant-baseline="alphabetic" fill-opacity="1">1</text><path fill="rgb(153,51,255)" stroke="none" paint-order="stroke fill markers" d=" M 144.0378293641573 0 L 144.0378293641573 702.0782574627115 L 412.9306907035485 702.0782574627115 L 412.9306907035485 0 Z" fill-opacity="0.24705882352941178"/><path fill="none" stroke="rgb(204,0,0)" paint-order="fill stroke markers" d=" M 166.44556780910656 231.51575011877696 L 201.8311413631762 284.59411044988144" stroke-opacity="0.6980392156862745" stroke-linecap="round" stroke-linejoin="round" stroke-miterlimit="10" stroke-width="2.5"/><path fill="rgb(204,0,0)" stroke="none" paint-order="stroke fill markers" fill-rule="evenodd" d=" M 211.26104469900508 298.73896545362476 L 198.29492761224034 286.95158628383865 L 205.36735511411203 282.23663461592423 Z" fill-opacity="0.6980392156862745"/><path fill="none" stroke="rgb(204,0,0)" paint-order="fill stroke markers" d=" M 256.07652158890363 298.73896545362476 L 291.4620951429733 245.6606051225203" stroke-opacity="0.6980392156862745" stroke-linecap="round" stroke-linejoin="round" stroke-miterlimit="10" stroke-width="2.5"/><path fill="rgb(204,0,0)" stroke="none" paint-order="stroke fill markers" fill-rule="evenodd" d=" M 300.8919984788022 231.51575011877696 L 294.9983088939091 248.01808095647755 L 287.92588139203747 243.30312928856307 Z" fill-opacity="0.6980392156862745"/><path fill="none" stroke="rgb(204,0,0)" paint-order="fill stroke markers" d=" M 345.7074753687007 298.73896545362476 L 381.0930489227704 245.6606051225203" stroke-opacity="0.6980392156862745" stroke-linecap="round" stroke-linejoin="round" stroke-miterlimit="10" stroke-width="2.5"/><path fill="rgb(204,0,0)" stroke="none" paint-order="stroke fill markers" fill-rule="evenodd" d=" M 390.5229522585993 231.51575011877696 L 384.6292626737062 248.01808095647755 L 377.55683517183456 243.30312928856307 Z" fill-opacity="0.6980392156862745"/><path fill="none" stroke="rgb(0,51,153)" paint-order="fill stroke markers" d=" M 166.44556780910656 360.48424988122275 L 201.27527354904993 312.4970312530285" stroke-opacity="0.6980392156862745" stroke-linecap="round" stroke-linejoin="round" stroke-miterlimit="10" stroke-width="2.5"/><path fill="rgb(0,51,153)" stroke="none" paint-order="stroke fill markers" fill-rule="evenodd" d=" M 211.26104469900508 298.73896545362476 L 204.71478999890087 314.9934740405173 L 197.835757099199 310.00058846553975 Z" fill-opacity="0.6980392156862745"/><path fill="none" stroke="rgb(0,51,153)" paint-order="fill stroke markers" d=" M 300.8919984788022 360.48424988122275 L 266.0622927388588 312.4970312530285" stroke-opacity="0.6980392156862745" stroke-linecap="round" stroke-linejoin="round" stroke-miterlimit="10" stroke-width="2.5"/><path fill="rgb(0,51,153)" stroke="none" paint-order="stroke fill markers" fill-rule="evenodd" d=" M 256.07652158890363 298.73896545362476 L 269.50180918870973 310.00058846553975 L 262.62277628900785 314.9934740405173 Z" fill-opacity="0.6980392156862745"/><path fill="none" stroke="rgb(0,51,153)" paint-order="fill stroke markers" d=" M 390.5229522585993 360.48424988122275 L 355.6932465186559 312.4970312530285" stroke-opacity="0.6980392156862745" stroke-linecap="round" stroke-linejoin="round" stroke-miterlimit="10" stroke-width="2.5"/><path fill="rgb(0,51,153)" stroke="none" paint-order="stroke fill markers" fill-rule="evenodd" d=" M 345.7074753687007 298.73896545362476 L 359.1327629685068 310.00058846553975 L 352.25373006880494 314.9934740405173 Z" fill-opacity="0.6980392156862745"/><path fill="rgb(128,0,128)" stroke="none" paint-order="stroke fill markers" d=" M 237.66878314395439 295.9999999999999 C 237.66878314395439 298.20913899932305 235.87792214327754 299.9999999999999 233.66878314395439 299.9999999999999 C 231.4596441446312 299.9999999999999 229.66878314395439 298.20913899932305 229.66878314395439 295.9999999999999 C 229.66878314395439 293.7908610006767 231.4596441446312 291.9999999999999 233.66878314395439 291.9999999999999 C 235.87792214327754 291.9999999999999 237.66878314395439 293.7908610006767 237.66878314395439 295.9999999999999 Z" fill-opacity="1"/><path fill="none" stroke="rgb(0,0,0)" paint-order="fill stroke markers" d=" M 237.66878314395439 295.9999999999999 C 237.66878314395439 298.20913899932305 235.87792214327754 299.9999999999999 233.66878314395439 299.9999999999999 C 231.4596441446312 299.9999999999999 229.66878314395439 298.20913899932305 229.66878314395439 295.9999999999999 C 229.66878314395439 293.7908610006767 231.4596441446312 291.9999999999999 233.66878314395439 291.9999999999999 C 235.87792214327754 291.9999999999999 237.66878314395439 293.7908610006767 237.66878314395439 295.9999999999999 Z" stroke-opacity="1" stroke-linecap="round" stroke-linejoin="round" stroke-miterlimit="10"/><text fill="rgb(128,0,128)" stroke="none" font-family="geogebra-sans-serif, sans-serif" font-size="16px" font-style="normal" font-weight="normal" text-decoration="normal" x="229" y="324" text-anchor="start" dominant-baseline="alphabetic" fill-opacity="1">E</text><text fill="rgb(128,0,128)" stroke="none" font-family="geogebra-sans-serif, sans-serif" font-size="14px" font-style="normal" font-weight="normal" text-decoration="normal" x="238" y="331" text-anchor="start" dominant-baseline="alphabetic" fill-opacity="1">1</text><path fill="rgb(128,0,128)" stroke="none" paint-order="stroke fill markers" d=" M 327.2997369237514 295.9999999999999 C 327.2997369237514 298.20913899932305 325.5088759230746 299.9999999999999 323.2997369237514 299.9999999999999 C 321.09059792442827 299.9999999999999 319.2997369237514 298.20913899932305 319.2997369237514 295.9999999999999 C 319.2997369237514 293.7908610006767 321.09059792442827 291.9999999999999 323.2997369237514 291.9999999999999 C 325.5088759230746 291.9999999999999 327.2997369237514 293.7908610006767 327.2997369237514 295.9999999999999 Z" fill-opacity="1"/><path fill="none" stroke="rgb(0,0,0)" paint-order="fill stroke markers" d=" M 327.2997369237514 295.9999999999999 C 327.2997369237514 298.20913899932305 325.5088759230746 299.9999999999999 323.2997369237514 299.9999999999999 C 321.09059792442827 299.9999999999999 319.2997369237514 298.20913899932305 319.2997369237514 295.9999999999999 C 319.2997369237514 293.7908610006767 321.09059792442827 291.9999999999999 323.2997369237514 291.9999999999999 C 325.5088759230746 291.9999999999999 327.2997369237514 293.7908610006767 327.2997369237514 295.9999999999999 Z" stroke-opacity="1" stroke-linecap="round" stroke-linejoin="round" stroke-miterlimit="10"/><text fill="rgb(128,0,128)" stroke="none" font-family="geogebra-sans-serif, sans-serif" font-size="16px" font-style="normal" font-weight="normal" text-decoration="normal" x="319" y="322" text-anchor="start" dominant-baseline="alphabetic" fill-opacity="1">E</text><text fill="rgb(128,0,128)" stroke="none" font-family="geogebra-sans-serif, sans-serif" font-size="14px" font-style="normal" font-weight="normal" text-decoration="normal" x="328" y="329" text-anchor="start" dominant-baseline="alphabetic" fill-opacity="1">2</text></g></g></svg>